<?xml version="1.0" encoding="UTF-8"?>
<svg version="1.1" xmlns="http://www.w3.org/2000/svg" width="512" height="512">
<path d="M0 0 C9.30992503 5.47126648 15.38417491 11.29588392 18.53759766 21.6862793 C19.14651 24.40139223 19.55576755 27.12065548 19.92431641 29.87768555 C20.03105179 30.62662582 20.13778717 31.3755661 20.24775696 32.14720154 C20.46956351 33.71715575 20.68698017 35.28773603 20.90014648 36.85888672 C21.2249435 39.24764553 21.56471083 41.63391734 21.90673828 44.02026367 C22.1218143 45.55594751 22.33603615 47.09175128 22.54931641 48.62768555 C22.64927414 49.33204239 22.74923187 50.03639923 22.85221863 50.76210022 C23.44414102 55.17677916 23.53759766 59.17120495 23.53759766 63.6862793 C31.12759766 63.6862793 38.71759766 63.6862793 46.53759766 63.6862793 C45.91884766 60.4687793 45.30009766 57.2512793 44.66259766 53.9362793 C44.11387218 51.04715317 43.56882697 48.15736702 43.02490234 45.26733398 C42.6307045 43.17942835 42.22972859 41.09280313 41.82666016 39.0065918 C38.84546282 22.71802087 38.84546282 22.71802087 42.03759766 16.9987793 C45.47887223 15.19211015 48.74345657 14.67846057 52.53759766 15.6862793 C55.90327322 17.95485619 56.85164737 20.2156371 57.69775391 24.0378418 C58.01505898 25.79274682 58.31491619 27.55086864 58.60009766 29.3112793 C58.76219727 30.23682617 58.92429687 31.16237305 59.09130859 32.1159668 C59.42388773 34.02911355 59.7491984 35.94353747 60.06738281 37.85913086 C60.51354889 40.54168704 60.98089863 43.21957738 61.45556641 45.8972168 C61.73399686 47.49338178 62.01139321 49.08972761 62.28759766 50.6862793 C62.41529541 51.42056152 62.54299316 52.15484375 62.67456055 52.91137695 C63.28952609 56.60635616 63.53759766 59.91011179 63.53759766 63.6862793 C69.14759766 63.6862793 74.75759766 63.6862793 80.53759766 63.6862793 C80.49119141 62.28893555 80.44478516 60.8915918 80.39697266 59.4519043 C80.35945183 57.61338401 80.32305201 55.7748406 80.28759766 53.9362793 C80.25408203 53.01588867 80.22056641 52.09549805 80.18603516 51.1472168 C80.17314453 50.25776367 80.16025391 49.36831055 80.14697266 48.4519043 C80.12602539 47.63496094 80.10507812 46.81801758 80.08349609 45.97631836 C80.7281542 42.72530059 81.85487849 41.59976393 84.53759766 39.6862793 C87.56079102 39.41015625 87.56079102 39.41015625 91.12744141 39.67456055 C92.4686437 39.7372499 93.81015276 39.79361599 95.15185547 39.84448242 C95.85652954 39.87292236 96.56120361 39.9013623 97.28723145 39.93066406 C117.54281889 40.56128493 130.41639174 33.17019416 146.53759766 21.6862793 C148.30311354 20.45363926 150.07246018 19.22670756 151.84320068 18.00158691 C153.45737136 16.8842389 155.06756598 15.76115313 156.67749023 14.63769531 C165.6278869 8.53095007 172.5405493 6.30672126 183.53759766 7.6862793 C190.20259949 9.41424274 194.70658965 14.12614065 198.53759766 19.6862793 C200.90789147 24.27908197 200.83365685 28.49862038 200.828125 33.54394531 C200.83484222 34.4258252 200.84155945 35.30770508 200.84848022 36.21630859 C200.86744133 39.12432522 200.87138292 42.032111 200.87353516 44.94018555 C200.87996242 46.96370031 200.88669073 48.98721413 200.89370728 51.01072693 C200.90567389 55.2482214 200.90938853 59.48563436 200.90820312 63.72314453 C200.90799952 69.15632264 200.93534734 74.58898012 200.96974754 80.02203465 C200.991964 84.19901438 200.99604235 88.37586753 200.99498367 92.55290031 C200.9973458 94.556404 201.00620361 96.55991085 201.02164841 98.5633564 C201.04120997 101.36194761 201.03551013 104.15939887 201.0234375 106.95800781 C201.03467651 107.78668869 201.04591553 108.61536957 201.05749512 109.46916199 C201.01834826 113.03415728 200.86326041 115.23208808 198.75723267 118.16929626 C196.53759766 119.6862793 196.53759766 119.6862793 192.53759766 120.6862793 C192.53759766 144.1162793 192.53759766 167.5462793 192.53759766 191.6862793 C195.17759766 191.6862793 197.81759766 191.6862793 200.53759766 191.6862793 C200.53759766 196.9662793 200.53759766 202.2462793 200.53759766 207.6862793 C42.13759766 207.6862793 -116.26240234 207.6862793 -279.46240234 207.6862793 C-279.46240234 202.4062793 -279.46240234 197.1262793 -279.46240234 191.6862793 C-276.82240234 191.6862793 -274.18240234 191.6862793 -271.46240234 191.6862793 C-271.46240234 173.5362793 -271.46240234 155.3862793 -271.46240234 136.6862793 C-273.44240234 136.0262793 -275.42240234 135.3662793 -277.46240234 134.6862793 C-279.54390455 131.56402599 -279.71450276 130.86490273 -279.72982788 127.31721497 C-279.73835785 126.42433777 -279.74688782 125.53146057 -279.75567627 124.61152649 C-279.7547699 123.63435165 -279.75386353 122.65717682 -279.75292969 121.65039062 C-279.75964691 120.61917084 -279.76636414 119.58795105 -279.77328491 118.52548218 C-279.79232711 115.10637631 -279.7961927 111.68746619 -279.79833984 108.26831055 C-279.80476499 105.89279601 -279.81149314 103.51728227 -279.81851196 101.14176941 C-279.8305014 96.15585496 -279.83419123 91.17000988 -279.83300781 86.18408203 C-279.83280489 79.80290278 -279.86007273 73.42217021 -279.89455223 67.04109669 C-279.91682253 62.1313626 -279.92084525 57.22173583 -279.91978836 52.31195641 C-279.92214543 49.96008456 -279.93097489 47.6082098 -279.94645309 45.25638771 C-279.96610855 41.96032399 -279.96027529 38.66522072 -279.94824219 35.36914062 C-279.9594812 34.40208694 -279.97072021 33.43503326 -279.9822998 32.43867493 C-279.91564492 25.23226559 -278.28875591 19.91158138 -273.49755859 14.4440918 C-272.84658203 13.90526367 -272.19560547 13.36643555 -271.52490234 12.8112793 C-270.87650391 12.25698242 -270.22810547 11.70268555 -269.56005859 11.1315918 C-263.07842536 6.66566201 -256.07136751 6.88621286 -248.46240234 7.6862793 C-243.07492188 9.37883978 -238.64594522 12.50807287 -234.07568359 15.75268555 C-233.19960449 16.36587646 -232.32352539 16.97906738 -231.42089844 17.61083984 C-229.89829286 18.67897567 -228.37610846 19.74776669 -226.86138916 20.82705688 C-206.7438719 35.13525134 -191.354368 41.59338543 -166.43798828 39.44189453 C-163.46240234 39.6862793 -163.46240234 39.6862793 -161.08154297 41.38476562 C-159.21780663 44.03395779 -158.98971264 45.25138087 -159.07177734 48.4519043 C-159.08466797 49.34135742 -159.09755859 50.23081055 -159.11083984 51.1472168 C-159.14435547 52.06760742 -159.17787109 52.98799805 -159.21240234 53.9362793 C-159.23044922 54.87213867 -159.24849609 55.80799805 -159.26708984 56.7722168 C-159.31413325 59.07734368 -159.38587456 61.38194284 -159.46240234 63.6862793 C-153.85240234 63.6862793 -148.24240234 63.6862793 -142.46240234 63.6862793 C-142.34638672 62.18709961 -142.23037109 60.68791992 -142.11083984 59.14331055 C-141.50456937 52.50305337 -140.50552589 45.9451391 -139.41552734 39.36865234 C-139.08526158 37.36076426 -138.76983443 35.35087043 -138.45458984 33.34057617 C-138.24318359 32.05602539 -138.03177734 30.77147461 -137.81396484 29.44799805 C-137.62656738 28.29259521 -137.43916992 27.13719238 -137.24609375 25.94677734 C-136.41609439 22.49361803 -135.25002649 19.74960416 -133.46240234 16.6862793 C-130.24613703 15.07814664 -126.95016948 15.23135315 -123.46240234 15.6862793 C-120.96240234 16.9987793 -120.96240234 16.9987793 -119.46240234 19.6862793 C-118.56355234 27.90825214 -120.11808358 36.09447672 -121.54370117 44.16870117 C-121.90401049 46.20954845 -122.25165044 48.25225535 -122.59716797 50.2956543 C-124.29732012 60.19103264 -124.29732012 60.19103264 -125.46240234 63.6862793 C-117.87240234 63.6862793 -110.28240234 63.6862793 -102.46240234 63.6862793 C-102.33478516 61.67018555 -102.20716797 59.6540918 -102.07568359 57.5769043 C-101.54234527 50.15313376 -100.68277246 42.8081366 -99.64990234 35.4362793 C-99.49714844 34.24776367 -99.34439453 33.05924805 -99.18701172 31.8347168 C-97.76060934 21.61874403 -96.21614537 12.94249999 -87.77490234 6.33032227 C-86.63021484 5.516521 -86.63021484 5.516521 -85.46240234 4.6862793 C-84.25583984 3.81640381 -84.25583984 3.81640381 -83.02490234 2.92895508 C-57.88181191 -14.02485869 -26.37033687 -14.06758815 0 0 Z M-77.93115234 20.5456543 C-82.57281822 27.03451374 -82.51665366 37.20801188 -83.58740234 44.8737793 C-83.76916016 46.13125977 -83.95091797 47.38874023 -84.13818359 48.68432617 C-84.85757847 53.76606667 -85.46240234 58.54148744 -85.46240234 63.6862793 C-80.84240234 63.6862793 -76.22240234 63.6862793 -71.46240234 63.6862793 C-71.44052856 62.07402466 -71.44052856 62.07402466 -71.41821289 60.42919922 C-71.36025344 56.44253213 -71.28302106 52.45643129 -71.19995117 48.47021484 C-71.16669062 46.74472237 -71.13866216 45.0191208 -71.1159668 43.29345703 C-71.08244081 40.81324764 -71.03012828 38.334039 -70.97412109 35.85424805 C-70.96773117 35.08227585 -70.96134125 34.31030365 -70.95475769 33.51493835 C-70.80826421 28.18247879 -70.80826421 28.18247879 -69.27497864 25.98271179 C-66.78356281 24.20074408 -65.07850717 24.30552986 -62.02880859 24.2980957 C-60.91755615 24.28863922 -59.80630371 24.27918274 -58.66137695 24.2694397 C-57.46134033 24.27551239 -56.26130371 24.28158508 -55.02490234 24.2878418 C-53.79328369 24.28497162 -52.56166504 24.28210144 -51.29272461 24.27914429 C-48.01892277 24.27657772 -44.74554698 24.2886632 -41.47180176 24.30541992 C-39.4642985 24.31127377 -37.45718865 24.30544135 -35.44970703 24.29516602 C-31.59958539 24.2766695 -27.75004801 24.27886937 -23.89990234 24.2878418 C-22.09984741 24.27873276 -22.09984741 24.27873276 -20.26342773 24.2694397 C-18.59654907 24.28362442 -18.59654907 24.28362442 -16.89599609 24.2980957 C-15.42731079 24.30167587 -15.42731079 24.30167587 -13.92895508 24.30532837 C-11.46240234 24.6862793 -11.46240234 24.6862793 -9.64982605 25.98271179 C-7.59924289 28.92463288 -7.97937395 32.38814082 -7.95068359 35.85424805 C-7.93273239 36.64906082 -7.91478119 37.4438736 -7.89628601 38.26277161 C-7.84213265 40.79972031 -7.80827206 43.33648036 -7.77490234 45.8737793 C-7.74173361 47.5945087 -7.70724436 49.3152132 -7.67138672 51.03588867 C-7.58640362 55.25254952 -7.51961692 59.46915394 -7.46240234 63.6862793 C-2.84240234 63.6862793 1.77759766 63.6862793 6.53759766 63.6862793 C5.89206971 54.95501473 4.88418084 46.3454871 3.60009766 37.6862793 C3.43058594 36.48616211 3.26107422 35.28604492 3.08642578 34.04956055 C2.91691406 32.89842773 2.74740234 31.74729492 2.57275391 30.5612793 C2.34664429 29.01053711 2.34664429 29.01053711 2.1159668 27.4284668 C1.27972796 23.4636569 0.67057123 21.44259432 -2.76904297 19.14648438 C-3.70941406 18.67106201 -4.64978516 18.19563965 -5.61865234 17.70581055 C-6.64087891 17.18180664 -7.66310547 16.65780273 -8.71630859 16.11791992 C-9.78751953 15.58360352 -10.85873047 15.04928711 -11.96240234 14.4987793 C-13.56921875 13.67990234 -13.56921875 13.67990234 -15.20849609 12.84448242 C-17.95439951 11.44729197 -20.70593177 10.06247232 -23.46240234 8.6862793 C-24.12240234 8.3562793 -24.78240234 8.0262793 -25.46240234 7.6862793 C-45.51604675 5.32655648 -61.69399184 8.3164005 -77.93115234 20.5456543 Z M-260.83740234 26.4987793 C-264.03586239 30.80439859 -263.59811734 35.1610967 -263.57592773 40.28857422 C-263.57607376 41.16683365 -263.57621979 42.04509308 -263.57637024 42.94996643 C-263.57567306 45.85558535 -263.56788973 48.76114032 -263.56005859 51.66674805 C-263.55819372 53.68028224 -263.55677015 55.69381688 -263.55577087 57.70735168 C-263.55195114 63.00919851 -263.54212546 68.31101799 -263.53106689 73.612854 C-263.52084111 79.02209096 -263.51627075 84.43133234 -263.51123047 89.84057617 C-263.50050273 100.45582257 -263.4834328 111.07104866 -263.46240234 121.6862793 C-262.21104492 122.09990723 -260.9596875 122.51353516 -259.67041016 122.93969727 C-255.02518947 124.47603166 -250.38129652 126.01634553 -245.73779297 127.55786133 C-243.72838726 128.22431206 -241.71862374 128.889685 -239.70849609 129.55395508 C-236.81822339 130.50928731 -233.92926222 131.46849605 -231.04052734 132.4284668 C-230.14247375 132.72437714 -229.24442017 133.02028748 -228.31915283 133.32516479 C-227.47858337 133.60530426 -226.63801392 133.88544373 -225.77197266 134.17407227 C-225.03472961 134.41833954 -224.29748657 134.66260681 -223.53790283 134.91427612 C-217.83223208 137.03655745 -217.83223208 137.03655745 -216.41430664 139.52758789 C-213.01083456 149.68194215 -210.16223573 160.00073567 -207.27490234 170.3112793 C-206.45830172 173.22355726 -205.64047119 176.13545947 -204.81852722 179.04623413 C-204.31004885 180.84711216 -203.80467078 182.64886901 -203.3026886 184.4515686 C-202.47807331 188.3802983 -202.47807331 188.3802983 -200.46240234 191.6862793 C-198.27600781 191.75886876 -196.08739845 191.77001712 -193.89990234 191.7487793 C-192.10359375 191.73524414 -192.10359375 191.73524414 -190.27099609 191.72143555 C-188.88074219 191.7040332 -188.88074219 191.7040332 -187.46240234 191.6862793 C-188.1602522 184.79907648 -190.15696734 178.33499751 -192.10302734 171.7097168 C-192.46708679 170.46630524 -192.83114624 169.22289368 -193.20623779 167.94180298 C-193.97570893 165.31997872 -194.74985415 162.6995805 -195.52636719 160.07983398 C-196.51689176 156.73400101 -197.48764044 153.38276605 -198.45398331 150.02988243 C-199.38538442 146.81479721 -200.3395212 143.60655664 -201.29052734 140.3972168 C-201.63343811 139.19817719 -201.97634888 137.99913757 -202.32965088 136.76376343 C-205.23005788 127.13260452 -209.27180378 123.05087631 -217.81005859 118.18237305 C-218.5037706 117.77720963 -219.1974826 117.3720462 -219.91221619 116.9546051 C-222.11226162 115.67030001 -224.31788703 114.39606439 -226.52490234 113.1237793 C-228.73514989 111.84738484 -230.94387888 110.56867521 -233.14830017 109.28224182 C-234.51490812 108.48485766 -235.8848515 107.69315386 -237.25856018 106.9080658 C-244.48093359 102.69705861 -244.48093359 102.69705861 -246.46240234 99.6862793 C-247.03901777 96.08918958 -246.99854724 92.53719621 -246.95849609 88.90112305 C-246.95995132 87.8484877 -246.96140656 86.79585236 -246.96290588 85.71131897 C-246.96124705 83.4880191 -246.94968762 81.26470773 -246.92895508 79.04150391 C-246.89997977 75.63288798 -246.90835112 72.22582496 -246.92138672 68.81713867 C-246.91515001 66.65762588 -246.9067596 64.49811802 -246.89599609 62.33862305 C-246.89893173 61.31671371 -246.90186737 60.29480438 -246.90489197 59.2419281 C-246.88586571 57.82014 -246.88586571 57.82014 -246.86645508 56.36962891 C-246.86105209 55.53564072 -246.85564911 54.70165253 -246.8500824 53.84239197 C-246.36897281 51.16666372 -245.62852987 50.29269673 -243.46240234 48.6862793 C-236.29631866 47.27655792 -231.67352534 50.5183238 -225.61132812 54.02197266 C-208.55244143 63.87846033 -195.04993431 65.73320788 -175.46240234 63.6862793 C-175.46240234 61.0462793 -175.46240234 58.4062793 -175.46240234 55.6862793 C-176.15873779 55.74501221 -176.85507324 55.80374512 -177.57250977 55.86425781 C-199.84300119 57.35815417 -212.85449631 51.05024474 -230.73181152 38.84936523 C-234.35090234 36.41706663 -238.04859172 34.10307765 -241.73861694 31.78027344 C-244.34358887 30.12296213 -246.76738939 28.43255851 -249.14355469 26.45581055 C-251.45761115 24.39012082 -251.45761115 24.39012082 -255.02490234 24.1862793 C-258.49491769 24.40672104 -258.49491769 24.40672104 -260.83740234 26.4987793 Z M167.80712891 28.1081543 C160.60822862 33.50328989 152.92035852 37.96210282 145.16259766 42.4987793 C143.71307289 43.35177511 142.26385229 44.20528803 140.81494141 45.05932617 C138.1678834 46.61893272 135.51901349 48.1753632 132.86816406 49.72851562 C130.87847322 50.8980898 128.91288721 52.11299902 127.00708008 53.41479492 C123.86042811 55.0349396 121.45348353 55.11742346 117.92431641 55.19799805 C116.05356445 55.25117188 116.05356445 55.25117188 114.14501953 55.30541992 C112.85144531 55.32797852 111.55787109 55.35053711 110.22509766 55.3737793 C108.9121875 55.40793945 107.59927734 55.44209961 106.24658203 55.47729492 C103.01033914 55.55967201 99.77436381 55.62885945 96.53759766 55.6862793 C96.53759766 58.3262793 96.53759766 60.9662793 96.53759766 63.6862793 C117.13379157 65.83861467 130.65696331 63.28626216 148.49642944 52.97593689 C158.13732876 47.42721001 158.13732876 47.42721001 164.53759766 48.6862793 C166.22084045 49.98048401 166.22084045 49.98048401 167.53759766 51.6862793 C167.84831512 54.72304972 167.9817229 57.55033349 167.97119141 60.58862305 C167.97643326 61.46273331 167.98167511 62.33684357 167.98707581 63.23744202 C167.99349824 65.08585549 167.99215613 66.93430982 167.98364258 68.78271484 C167.97513899 71.61003513 168.00387913 74.43533091 168.03564453 77.26245117 C168.03725681 79.05867452 168.03667851 80.85490145 168.03369141 82.65112305 C168.04492538 83.49601791 168.05615936 84.34091278 168.06773376 85.21141052 C167.99851213 91.04702137 167.99851213 91.04702137 165.84472656 94.03417969 C163.31761183 95.84380777 160.78807919 97.54584009 158.12744141 99.1550293 C156.53222656 100.12690186 156.53222656 100.12690186 154.90478516 101.1184082 C153.76156129 101.80770736 152.61833201 102.49699754 151.47509766 103.1862793 C149.11818074 104.61880079 146.76358275 106.0551187 144.40869141 107.4909668 C143.8223996 107.84766449 143.23610779 108.20436218 142.63204956 108.5718689 C137.39670751 111.76044337 132.21019632 115.02222146 127.03759766 118.3112793 C120.92339587 122.19335306 114.78679354 126.02351153 108.53759766 129.6862793 C109.09862775 133.13877219 109.91964243 135.74217418 111.69775391 138.7487793 C112.38236694 139.9236792 112.38236694 139.9236792 113.08081055 141.12231445 C113.58217529 141.96842285 114.08354004 142.81453125 114.60009766 143.6862793 C118.41170985 150.21827838 122.16213723 156.77590897 125.78759766 163.4128418 C126.14567001 164.06750427 126.50374237 164.72216675 126.87266541 165.39666748 C128.30454648 168.01668716 129.73519581 170.63730953 131.1567688 173.26293945 C132.15556583 175.10703548 133.16054678 176.94764454 134.16650391 178.7878418 C134.744729 179.85341309 135.3229541 180.91898438 135.91870117 182.0168457 C137.30316355 184.29971581 138.54631693 185.93895968 140.53759766 187.6862793 C139.50557733 181.04505435 138.05508862 174.55485916 136.37353516 168.0534668 C136.1756842 167.28568909 135.97783325 166.51791138 135.77398682 165.72686768 C134.94746599 162.52994752 134.11694249 159.33420192 133.27294922 156.1418457 C132.65086569 153.78147484 132.04257042 151.41787373 131.43603516 149.0534668 C131.24544525 148.34696991 131.05485535 147.64047302 130.85848999 146.91256714 C129.60690623 141.98088745 128.61155837 136.7515657 129.53759766 131.6862793 C131.67455195 128.82734738 134.3089619 127.71766225 137.54394531 126.34204102 C138.56154938 125.90503876 139.57915344 125.4680365 140.62759399 125.01779175 C141.72453583 124.55518951 142.82147766 124.09258728 143.95166016 123.6159668 C145.63973282 122.89342209 145.63973282 122.89342209 147.36190796 122.15628052 C150.95927288 120.6177968 154.56069735 119.08911094 158.16259766 117.5612793 C161.77090671 116.02465552 165.37833488 114.48601023 168.98471069 112.94485474 C171.23035168 111.98584201 173.47725597 111.02978138 175.72549438 110.07687378 C176.73679413 109.64617584 177.74809387 109.21547791 178.79003906 108.77172852 C179.68477936 108.3921701 180.57951965 108.01261169 181.50137329 107.62155151 C183.48771195 106.85197326 183.48771195 106.85197326 184.53759766 105.6862793 C184.64786188 103.41789598 184.68674964 101.14603005 184.69873047 98.875 C184.70369537 98.16272751 184.70866028 97.45045502 184.71377563 96.71659851 C184.72843865 94.34840951 184.73520782 91.98028759 184.74072266 89.61206055 C184.7464729 87.96876523 184.75223065 86.32546995 184.75799561 84.68217468 C184.76851886 81.22951952 184.77435212 77.77688771 184.77783203 74.32421875 C184.78330449 69.90683048 184.80729994 65.48975237 184.83580399 61.07246113 C184.8544641 57.67432264 184.85963787 54.27625813 184.86116791 50.87807274 C184.86418987 49.25022889 184.872203 47.6223862 184.88535309 45.99459267 C184.90247642 43.71100256 184.90051782 41.42816014 184.89404297 39.14453125 C184.8976886 37.84626907 184.90133423 36.5480069 184.90509033 35.21040344 C184.50533655 31.37690677 183.55340619 28.95182541 181.53759766 25.6862793 C175.89118416 22.86307255 172.46036626 24.46108365 167.80712891 28.1081543 Z M-55.46240234 39.6862793 C-55.46240234 47.6062793 -55.46240234 55.5262793 -55.46240234 63.6862793 C-44.90240234 63.6862793 -34.34240234 63.6862793 -23.46240234 63.6862793 C-23.46240234 55.7662793 -23.46240234 47.8462793 -23.46240234 39.6862793 C-34.02240234 39.6862793 -44.58240234 39.6862793 -55.46240234 39.6862793 Z M-231.46240234 69.6862793 C-233.33364059 76.66846554 -234.51901904 83.91656006 -231.46240234 90.6862793 C-224.59222059 97.50199755 -215.48331229 101.67233957 -206.90356445 105.95458984 C-203.78798797 107.52243546 -200.72385905 109.13299944 -197.69287109 110.8581543 C-196.92354248 111.29095703 -196.15421387 111.72375977 -195.36157227 112.16967773 C-191.44298054 115.29890923 -190.67013207 120.01783526 -189.46240234 124.6862793 C-189.02147633 126.18536006 -188.57443902 127.68265165 -188.12255859 129.1784668 C-186.86879549 133.33850379 -185.65731727 137.50897426 -184.46240234 141.6862793 C-184.13240234 141.6862793 -183.80240234 141.6862793 -183.46240234 141.6862793 C-183.46240234 121.2262793 -183.46240234 100.7662793 -183.46240234 79.6862793 C-197.32240234 79.1912793 -197.32240234 79.1912793 -211.46240234 78.6862793 C-218.16255317 75.80915571 -223.4502185 73.37862546 -229.46240234 69.6862793 C-230.12240234 69.6862793 -230.78240234 69.6862793 -231.46240234 69.6862793 Z M147.38916016 71.61987305 C133.29741803 80.15954415 120.90139906 79.76571523 104.53759766 79.6862793 C104.53759766 90.5762793 104.53759766 101.4662793 104.53759766 112.6862793 C112.50630957 108.03786401 120.39134137 103.38123354 128.13256836 98.38134766 C132.2052888 95.7576727 136.28271388 93.24350565 140.53759766 90.92456055 C148.91351869 86.67141431 148.91351869 86.67141431 153.59228516 79.1081543 C153.59947128 75.78816652 153.32080822 72.90614494 152.53759766 69.6862793 C150.20584328 69.51183584 150.20584328 69.51183584 147.38916016 71.61987305 Z M-167.46240234 79.6862793 C-167.46240234 84.9662793 -167.46240234 90.2462793 -167.46240234 95.6862793 C-82.98240234 95.6862793 1.49759766 95.6862793 88.53759766 95.6862793 C88.53759766 90.4062793 88.53759766 85.1262793 88.53759766 79.6862793 C4.05759766 79.6862793 -80.42240234 79.6862793 -167.46240234 79.6862793 Z M-167.46240234 111.6862793 C-167.46240234 138.0862793 -167.46240234 164.4862793 -167.46240234 191.6862793 C-162.18240234 191.6862793 -156.90240234 191.6862793 -151.46240234 191.6862793 C-151.46240234 165.2862793 -151.46240234 138.8862793 -151.46240234 111.6862793 C-156.74240234 111.6862793 -162.02240234 111.6862793 -167.46240234 111.6862793 Z M-135.46240234 111.6862793 C-135.46240234 138.0862793 -135.46240234 164.4862793 -135.46240234 191.6862793 C-112.36240234 191.6862793 -89.26240234 191.6862793 -65.46240234 191.6862793 C-66.16361454 181.16809641 -66.88573836 170.74964485 -68.12475586 160.29589844 C-68.30899553 158.6740335 -68.47618149 157.05014515 -68.62670898 155.42480469 C-69.72760871 143.48849941 -69.72760871 143.48849941 -76.46240234 133.8347168 C-77.32736328 133.1236377 -78.19232422 132.41255859 -79.08349609 131.67993164 C-85.79685153 126.053776 -86.51102098 120.24871153 -87.46240234 111.6862793 C-103.30240234 111.6862793 -119.14240234 111.6862793 -135.46240234 111.6862793 Z M-71.46240234 111.6862793 C-69.89004432 117.11063858 -69.89004432 117.11063858 -66.71240234 120.72143555 C-66.18646484 121.22094727 -65.66052734 121.72045898 -65.11865234 122.23510742 C-64.57208984 122.73461914 -64.02552734 123.23413086 -63.46240234 123.7487793 C-57.86709075 128.90200849 -55.51458829 132.77816196 -54.60864258 140.37866211 C-54.47187607 141.49621887 -54.33510956 142.61377563 -54.19419861 143.76519775 C-54.05454178 144.96118591 -53.91488495 146.15717407 -53.77099609 147.3894043 C-53.62082535 148.6229364 -53.4706546 149.85646851 -53.31593323 151.12738037 C-52.91871667 154.39463879 -52.52690763 157.66247915 -52.13842773 160.93078613 C-51.58897117 165.5505517 -51.03402032 170.16962976 -50.47315979 174.7880249 C-50.17492187 177.24586848 -49.88099182 179.70423914 -49.59165955 182.16314697 C-49.4580452 183.26809509 -49.32443085 184.37304321 -49.18676758 185.51147461 C-49.07066635 186.48900696 -48.95456512 187.46653931 -48.83494568 188.47369385 C-48.687693 190.6542838 -48.687693 190.6542838 -47.46240234 191.6862793 C-44.78508855 191.78609143 -42.1393606 191.82507805 -39.46240234 191.8112793 C-38.33705078 191.81708008 -38.33705078 191.81708008 -37.18896484 191.82299805 C-33.52634118 192.16303471 -33.52634118 192.16303471 -30.46240234 190.6862793 C-30.17842205 188.97388074 -29.95398811 187.25155977 -29.75390625 185.52734375 C-29.55832626 183.87476311 -29.55832626 183.87476311 -29.35879517 182.188797 C-29.15097916 180.38737495 -29.15097916 180.38737495 -28.93896484 178.54956055 C-28.63728019 176.02802844 -28.33518376 173.50654557 -28.03271484 170.98510742 C-27.55856497 166.99385515 -27.08710485 163.00237183 -26.62451172 159.00976562 C-26.17677998 155.16760808 -25.71510725 151.32732608 -25.25146484 147.48706055 C-25.1169693 146.29623367 -24.98247375 145.1054068 -24.84390259 143.87849426 C-23.97679056 136.78964738 -23.08722558 130.68701861 -17.57958984 125.65112305 C-17.05236328 125.15161133 -16.52513672 124.65209961 -15.98193359 124.13745117 C-14.87940216 123.12265086 -13.77521444 122.10964727 -12.66943359 121.09838867 C-9.16523802 117.77069435 -8.4581467 116.66500109 -7.46240234 111.6862793 C-28.58240234 111.6862793 -49.70240234 111.6862793 -71.46240234 111.6862793 Z M8.53759766 111.6862793 C8.20759766 114.6562793 7.87759766 117.6262793 7.53759766 120.6862793 C5.24686881 126.44582612 1.79985128 130.53337752 -2.99365234 134.3659668 C-9.60524091 140.88325806 -9.60585496 149.01553205 -10.46240234 157.8112793 C-10.65032054 159.42627231 -10.84170692 161.04086569 -11.03662109 162.6550293 C-12.16460482 172.32292342 -12.81392687 181.95914716 -13.46240234 191.6862793 C9.63759766 191.6862793 32.73759766 191.6862793 56.53759766 191.6862793 C56.53759766 165.2862793 56.53759766 138.8862793 56.53759766 111.6862793 C40.69759766 111.6862793 24.85759766 111.6862793 8.53759766 111.6862793 Z M72.53759766 111.6862793 C72.53759766 138.0862793 72.53759766 164.4862793 72.53759766 191.6862793 C77.81759766 191.6862793 83.09759766 191.6862793 88.53759766 191.6862793 C88.53759766 165.2862793 88.53759766 138.8862793 88.53759766 111.6862793 C83.25759766 111.6862793 77.97759766 111.6862793 72.53759766 111.6862793 Z M163.55419922 132.6484375 C162.21171336 133.21452446 160.86730219 133.77606739 159.52099609 134.33300781 C157.58446435 135.13435585 155.65437121 135.94966835 153.72509766 136.76831055 C151.98292969 137.49884644 151.98292969 137.49884644 150.20556641 138.24414062 C147.23379325 139.45737153 147.23379325 139.45737153 146.53759766 142.6862793 C146.84211725 144.94102522 146.84211725 144.94102522 147.50976562 147.41723633 C147.74686249 148.37477814 147.98395935 149.33231995 148.22824097 150.31887817 C148.49275055 151.35019867 148.75726013 152.38151917 149.02978516 153.4440918 C149.29518097 154.50288544 149.56057678 155.56167908 149.83401489 156.65255737 C150.39686235 158.89117538 150.96369223 161.12879528 151.53417969 163.36547852 C152.41028777 166.80221822 153.27379175 170.24193623 154.13525391 173.68237305 C154.68269335 175.85313212 155.23084614 178.02371145 155.77978516 180.1940918 C156.04024628 181.22946075 156.3007074 182.26482971 156.56906128 183.33157349 C156.81246246 184.28281097 157.05586365 185.23404846 157.30664062 186.21411133 C157.52061493 187.05555695 157.73458923 187.89700256 157.95504761 188.76394653 C158.36923251 190.67512807 158.36923251 190.67512807 159.53759766 191.6862793 C165.14759766 191.6862793 170.75759766 191.6862793 176.53759766 191.6862793 C176.53759766 170.5662793 176.53759766 149.4462793 176.53759766 127.6862793 C172.44044791 127.6862793 167.39129367 131.02392952 163.55419922 132.6484375 Z M-255.46240234 142.6862793 C-255.46240234 158.8562793 -255.46240234 175.0262793 -255.46240234 191.6862793 C-243.25240234 191.6862793 -231.04240234 191.6862793 -218.46240234 191.6862793 C-221.04860691 182.03658712 -221.04860691 182.03658712 -223.65771484 172.39331055 C-224.68967585 168.58629716 -225.70057942 164.77835056 -226.64208984 160.94799805 C-226.95404297 159.72725586 -227.26599609 158.50651367 -227.58740234 157.2487793 C-227.83748047 156.21881836 -228.08755859 155.18885742 -228.34521484 154.12768555 C-230.09775536 150.29783302 -232.69030666 149.36959635 -236.50683594 147.89794922 C-238.85457469 147.05500976 -241.21514175 146.26985918 -243.58740234 145.4987793 C-244.39822266 145.22614258 -245.20904297 144.95350586 -246.04443359 144.67260742 C-250.6523263 143.13391626 -250.6523263 143.13391626 -255.46240234 142.6862793 Z M104.53759766 160.6862793 C104.53759766 170.9162793 104.53759766 181.1462793 104.53759766 191.6862793 C110.14759766 191.6862793 115.75759766 191.6862793 121.53759766 191.6862793 C120.01500378 187.11849766 118.60522871 183.7328286 116.27978516 179.6315918 C115.65458984 178.52299805 115.02939453 177.4144043 114.38525391 176.2722168 C113.73427734 175.13010742 113.08330078 173.98799805 112.41259766 172.8112793 C111.74675289 171.63446752 111.0813837 170.45738653 110.41650391 169.2800293 C108.79485501 166.41276603 107.16842567 163.54832846 105.53759766 160.6862793 C105.20759766 160.6862793 104.87759766 160.6862793 104.53759766 160.6862793 Z " fill="#000000" transform="translate(295.46240234375,272.313720703125)"/>
<path d="M0 0 C0.90471542 -0.00671722 1.80943085 -0.01343445 2.74156189 -0.02035522 C5.72774778 -0.03932819 8.71370879 -0.04325918 11.69995117 -0.04541016 C13.78114412 -0.05183893 15.86233617 -0.05856735 17.94352722 -0.06558228 C22.30547175 -0.07755354 26.66733708 -0.08126328 31.02929688 -0.08007812 C36.60780665 -0.07987503 42.18580645 -0.10716837 47.76419544 -0.14162254 C52.06314915 -0.16390444 56.36198042 -0.16791525 60.66098595 -0.16685867 C62.71700484 -0.16921302 64.77302719 -0.17802712 66.82898903 -0.19352341 C69.71057033 -0.21320773 72.59105578 -0.20733545 75.47265625 -0.1953125 C76.73618423 -0.21217102 76.73618423 -0.21217102 78.02523804 -0.22937012 C84.82620696 -0.15757821 90.03077487 1.74954919 95.17260742 6.25537109 C95.71143555 6.90634766 96.25026367 7.55732422 96.80541992 8.22802734 C97.3597168 8.87642578 97.91401367 9.52482422 98.48510742 10.19287109 C101.80964984 15.01795023 102.19826379 19.36180246 102.05541992 25.10302734 C102.04639648 25.79589844 102.03737305 26.48876953 102.02807617 27.20263672 C102.00468149 28.8987513 101.96881633 30.59468605 101.93041992 32.29052734 C103.06995117 32.26958008 104.20948242 32.24863281 105.38354492 32.22705078 C109.64008861 32.1542612 113.89657806 32.10858692 118.15356445 32.07080078 C119.99057285 32.05077361 121.82751821 32.02354352 123.66430664 31.98876953 C126.31566994 31.9398567 128.96618533 31.91746971 131.61791992 31.89990234 C132.42970703 31.8792572 133.24149414 31.85861206 134.07788086 31.83734131 C140.87326786 31.83470989 146.04032428 33.7579174 151.17260742 38.25537109 C151.71143555 38.90634766 152.25026367 39.55732422 152.80541992 40.22802734 C153.3597168 40.87642578 153.91401367 41.52482422 154.48510742 42.19287109 C157.45003488 46.49602257 158.18390929 50.24269752 158.22094727 55.42260742 C158.23370697 56.63769485 158.24646667 57.85278229 158.25961304 59.10469055 C158.26183868 60.40996201 158.26406433 61.71523346 158.26635742 63.06005859 C158.27279157 64.42380409 158.27952038 65.78754823 158.28652954 67.15129089 C158.29848354 70.00673621 158.3022124 72.86206073 158.30102539 75.7175293 C158.30082249 79.35905845 158.32810163 82.99980463 158.36256981 86.64114857 C158.38491717 89.45777372 158.38886054 92.2742129 158.38780594 95.09091759 C158.39128392 97.08051214 158.4128995 99.07004865 158.43490601 101.05952454 C158.39283102 109.43275656 157.61001015 115.10068144 151.93041992 121.56787109 C151.27041992 122.11572266 150.61041992 122.66357422 149.93041992 123.22802734 C149.27041992 123.79392578 148.61041992 124.35982422 147.93041992 124.94287109 C145.87745855 126.3262142 144.31863668 126.76095272 141.93041992 127.29052734 C141.95136719 128.14807617 141.97231445 129.005625 141.99389648 129.88916016 C142.06218519 133.07971207 142.11227505 136.2698908 142.15014648 139.4609375 C142.17022634 140.84029415 142.19749658 142.21956604 142.23217773 143.59863281 C142.28084809 145.58409713 142.3012841 147.57018989 142.32104492 149.55615234 C142.34199219 150.75014648 142.36293945 151.94414062 142.38452148 153.17431641 C141.93041992 156.29052734 141.93041992 156.29052734 140.40600586 158.71142578 C137.62360462 160.48623557 135.51191955 160.99801533 132.2081604 160.81610107 C127.43313935 159.71429617 123.61241856 156.7606717 119.62963867 154.01708984 C118.6714473 153.37814789 117.71325592 152.73920593 116.72602844 152.0809021 C113.67814587 150.04280613 110.64813361 147.97977772 107.61791992 145.91552734 C105.56110791 144.5336346 103.50317602 143.15340711 101.4440918 141.77490234 C96.92150476 138.7425372 92.41002029 135.69444417 87.90776062 132.63198853 C83.33221266 129.52785985 80.47124066 129.00984459 75.04370117 129.01708984 C73.44929329 128.99678682 71.85489231 128.97593579 70.26049805 128.95458984 C67.75693955 128.93207715 65.25365475 128.91555257 62.75 128.90966797 C60.32656757 128.90007117 57.90435616 128.86619656 55.48120117 128.82958984 C54.74444656 128.83463531 54.00769196 128.83968079 53.24861145 128.84487915 C46.77226864 128.7239753 41.61213791 126.63525069 36.72338867 122.36083984 C36.19358398 121.71888672 35.6637793 121.07693359 35.11791992 120.41552734 C34.30387695 119.46033203 34.30387695 119.46033203 33.47338867 118.48583984 C31.6447932 115.88414198 30.32866724 113.14247517 28.93041992 110.29052734 C28.1544043 110.83580078 27.37838867 111.38107422 26.57885742 111.94287109 C23.67395812 113.97075426 20.75842274 115.98110748 17.83422852 117.98095703 C16.57472759 118.84732828 15.31973698 119.72029686 14.06958008 120.60009766 C12.26403706 121.86901315 10.44320913 123.11274108 8.61791992 124.35302734 C8.06861816 124.74675537 7.51931641 125.1404834 6.95336914 125.54614258 C2.36528777 128.60828641 -0.73631713 128.98097015 -6.06958008 128.29052734 C-8.54516602 126.71142578 -8.54516602 126.71142578 -10.06958008 124.29052734 C-10.52368164 121.17431641 -10.52368164 121.17431641 -10.46020508 117.55615234 C-10.44086914 115.61289063 -10.44086914 115.61289063 -10.42114258 113.63037109 C-10.38772374 112.2670791 -10.35386399 110.90379785 -10.31958008 109.54052734 C-10.29950715 108.1616467 -10.28125775 106.78273823 -10.26489258 105.40380859 C-10.21773455 102.0320099 -10.15192546 98.66162048 -10.06958008 95.29052734 C-11.01808838 94.99106201 -11.96659668 94.69159668 -12.94384766 94.38305664 C-16.04018574 93.30080147 -17.49641785 92.40584644 -19.75708008 90.10302734 C-20.31782227 89.55259766 -20.87856445 89.00216797 -21.45629883 88.43505859 C-26.88820687 81.21443507 -26.52299598 74.06949854 -26.50317383 65.32568359 C-26.50774274 63.96479534 -26.51305041 62.60390939 -26.51905823 61.24302673 C-26.52796072 58.39947093 -26.52559932 55.5561964 -26.515625 52.71264648 C-26.50413962 49.08682407 -26.52435325 45.46197626 -26.55354214 41.83628178 C-26.57197777 39.02821286 -26.57159719 36.22037436 -26.56590462 33.41226006 C-26.56567877 31.43155135 -26.58250683 29.45086406 -26.59971619 27.4702301 C-26.53567781 19.15503761 -25.73891742 13.47780296 -20.10473633 7.04833984 C-19.45375977 6.50951172 -18.8027832 5.97068359 -18.13208008 5.41552734 C-17.48368164 4.86123047 -16.8352832 4.30693359 -16.16723633 3.73583984 C-10.90567868 0.11055804 -6.18389625 -0.00660626 0 0 Z M-8.06958008 19.29052734 C-9.94449714 22.58043402 -10.32327921 25.42301319 -10.34423828 29.16918945 C-10.35377029 30.11044174 -10.36330231 31.05169403 -10.37312317 32.02146912 C-10.37221176 33.02678177 -10.37130035 34.03209442 -10.37036133 35.06787109 C-10.37464645 36.11197647 -10.37893158 37.15608185 -10.38334656 38.23182678 C-10.38908091 40.43652624 -10.38959672 42.64124462 -10.38525391 44.84594727 C-10.38209458 48.21256897 -10.40556277 51.57831112 -10.4309082 54.94482422 C-10.43318139 57.0900054 -10.4338846 59.23518895 -10.43286133 61.38037109 C-10.44207108 62.38365952 -10.45128082 63.38694794 -10.46076965 64.42063904 C-10.42552881 69.7638296 -10.18824433 73.7276339 -7.06958008 78.29052734 C-4.43100162 79.77932759 -4.43100162 79.77932759 -1.44458008 80.54052734 C0.36058191 81.08065455 2.15660998 81.65496026 3.93041992 82.29052734 C5.10511436 84.63991623 5.13076881 86.24125939 5.24682617 88.86083984 C5.2887207 89.75673828 5.33061523 90.65263672 5.3737793 91.57568359 C5.4130957 92.51283203 5.45241211 93.44998047 5.49291992 94.41552734 C5.53610352 95.36041016 5.57928711 96.30529297 5.6237793 97.27880859 C5.73001065 99.61589826 5.83205169 101.95309565 5.93041992 104.29052734 C7.9721589 103.23922543 9.96493405 102.14001373 11.94897461 100.98193359 C14.18707692 99.71223389 16.38219045 98.60177083 18.70092773 97.50537109 C26.11163852 93.75289541 26.11163852 93.75289541 30.73654175 87.17572021 C31.86704032 81.21308364 31.45372965 75.19063522 31.11791992 69.16552734 C31.02631338 66.46180506 30.95646533 63.75927279 30.90608215 61.05447388 C30.86873962 59.38179324 30.80493097 57.70940662 30.70951843 56.03903198 C30.46036145 49.37138311 32.29925008 44.33962349 36.67651367 39.26708984 C37.23467773 38.82107422 37.7928418 38.37505859 38.36791992 37.91552734 C38.92350586 37.45404297 39.4790918 36.99255859 40.05151367 36.51708984 C45.22313133 33.14102343 49.95493209 32.96017347 55.94995117 32.87646484 C56.80852219 32.85709869 57.6670932 32.83773254 58.55168152 32.81777954 C61.28199466 32.75821178 64.01235049 32.71169 66.74291992 32.66552734 C68.59905765 32.62732655 70.45517805 32.5882736 72.3112793 32.54833984 C76.85085136 32.45252908 81.39050639 32.36841414 85.93041992 32.29052734 C85.9671582 30.41494141 85.9671582 30.41494141 86.00463867 28.50146484 C86.01841553 27.79812012 86.03219238 27.09477539 86.04638672 26.37011719 C85.86332817 23.08739561 84.77864431 20.96726612 82.93041992 18.29052734 C78.76862393 16.04409777 74.73424059 15.99998692 70.11425781 16.01586914 C68.95719078 16.00820274 68.95719078 16.00820274 67.77674866 16.00038147 C65.23544483 15.98651993 62.69441324 15.98743958 60.15307617 15.98974609 C58.38097534 15.98585737 56.60887544 15.98152233 54.83677673 15.97676086 C51.12552873 15.96930613 47.41437587 15.96958459 43.703125 15.97485352 C38.95401906 15.98064821 34.20530311 15.96371361 29.45626163 15.94050884 C25.79733514 15.92575696 22.13850228 15.92490176 18.47955132 15.92801857 C16.72890894 15.92750612 14.97826123 15.9222828 13.22764778 15.91220665 C10.77683491 15.89983072 8.32677789 15.90664038 5.87597656 15.91821289 C4.79802826 15.90674728 4.79802826 15.90674728 3.69830322 15.89505005 C-0.94190863 15.94332963 -4.21584698 16.66717888 -8.06958008 19.29052734 Z M47.93041992 51.29052734 C45.85126517 54.84356517 45.69166078 57.96654738 45.73510742 62.02880859 C45.74155273 63.09550781 45.74799805 64.16220703 45.75463867 65.26123047 C45.77139648 66.36402344 45.7881543 67.46681641 45.80541992 68.60302734 C45.81444336 69.72515625 45.8234668 70.84728516 45.83276367 72.00341797 C45.85627506 74.76600644 45.88913837 77.52815666 45.93041992 80.29052734 C50.37781406 80.36501986 54.82487182 80.41928992 59.27270508 80.45532227 C60.78383719 80.47035278 62.2949261 80.49078298 63.8059082 80.5168457 C65.98554179 80.55348424 68.16459567 80.57031073 70.34448242 80.58349609 C71.65368652 80.59920654 72.96289062 80.61491699 74.31176758 80.63110352 C78.28695781 80.25697112 80.62805997 79.5256575 83.93041992 77.29052734 C86.00957467 73.73748952 86.16917907 70.61450731 86.12573242 66.55224609 C86.11606445 64.95219727 86.11606445 64.95219727 86.10620117 63.31982422 C86.08944336 62.21703125 86.07268555 61.11423828 86.05541992 59.97802734 C86.04639648 58.85589844 86.03737305 57.73376953 86.02807617 56.57763672 C86.00456478 53.81504825 85.97170147 51.05289802 85.93041992 48.29052734 C81.48302579 48.21603483 77.03596802 48.16176477 72.58813477 48.12573242 C71.07700265 48.11070191 69.56591375 48.0902717 68.05493164 48.06420898 C65.87529805 48.02757045 63.69624417 48.01074396 61.51635742 47.99755859 C60.20715332 47.98184814 58.89794922 47.9661377 57.54907227 47.94995117 C53.57388204 48.32408357 51.23277987 49.05539719 47.93041992 51.29052734 Z M101.93041992 48.29052734 C101.92107422 49.18771484 101.91172852 50.08490234 101.90209961 51.00927734 C101.85780741 54.37201074 101.79607331 57.73352081 101.72290039 61.09570312 C101.69485956 62.5444795 101.67356181 63.99340407 101.65942383 65.44238281 C101.56491963 74.5840885 101.46857045 82.03155201 95.18432617 89.31396484 C94.62616211 89.75998047 94.06799805 90.20599609 93.49291992 90.66552734 C92.93733398 91.12701172 92.38174805 91.58849609 91.80932617 92.06396484 C86.93692829 95.2446986 82.37064836 95.59430447 76.67260742 95.63427734 C75.49530563 95.65621155 75.49530563 95.65621155 74.29421997 95.67858887 C70.95062084 95.74063598 67.60684388 95.78052301 64.26293945 95.82226562 C61.81596526 95.85598097 59.36938239 95.90108029 56.92260742 95.94677734 C55.78817703 95.95469299 55.78817703 95.95469299 54.63082886 95.96276855 C50.87192866 96.03435335 49.13549757 96.15380891 45.93041992 98.29052734 C46.11381473 104.44075535 46.11381473 104.44075535 48.80541992 109.79052734 C52.93034593 112.70223982 56.00290292 112.21878103 60.86791992 111.79833984 C86.70948931 110.24715858 102.06180903 118.49626288 122.17529297 134.19506836 C124.48616815 136.39142224 124.48616815 136.39142224 125.93041992 136.29052734 C125.94500244 135.70037842 125.95958496 135.11022949 125.97460938 134.50219727 C126.04910836 131.82681505 126.14575988 129.15267842 126.24291992 126.47802734 C126.26547852 125.54925781 126.28803711 124.62048828 126.3112793 123.66357422 C126.36445313 122.32456055 126.36445313 122.32456055 126.41870117 120.95849609 C126.44488525 120.13631592 126.47106934 119.31413574 126.49804688 118.46704102 C127.02286574 115.82516624 127.83269037 114.93228431 129.93041992 113.29052734 C132.19083039 112.51658245 134.44923622 111.97360551 136.77416992 111.42724609 C140.0773844 109.68587759 140.59081025 107.76800724 141.93041992 104.29052734 C142.36239068 100.66328496 142.35101666 97.06507703 142.32885742 93.41552734 C142.3317276 92.37283691 142.33459778 91.33014648 142.33755493 90.25585938 C142.33959126 88.05712336 142.33409169 85.85836906 142.3215332 83.65966797 C142.30547399 80.30183246 142.32139718 76.94520059 142.34057617 73.58740234 C142.33859366 71.4467747 142.33474983 69.3061478 142.32885742 67.16552734 C142.33493011 66.16537598 142.34100281 65.16522461 142.34725952 64.13476562 C142.2942233 58.85622123 142.16053574 54.70910698 138.93041992 50.29052734 C134.94882015 47.8457699 131.02593037 48.05869061 126.44213867 48.09521484 C125.73893997 48.09804474 125.03574127 48.10087463 124.31123352 48.10379028 C122.079951 48.11492584 119.84907975 48.14001737 117.61791992 48.16552734 C116.09904554 48.17556574 114.58016482 48.18469009 113.0612793 48.19287109 C109.35086071 48.21484321 105.6406805 48.24932688 101.93041992 48.29052734 Z " fill="#000000" transform="translate(290.069580078125,39.70947265625)"/>
<path d="M0 0 C1.06077255 -0.00671722 2.1215451 -0.01343445 3.21446228 -0.02035522 C6.72008961 -0.03934785 10.2255256 -0.04326016 13.73120117 -0.04541016 C16.17111795 -0.05183742 18.61103395 -0.05856573 21.0509491 -0.06558228 C26.1661457 -0.07755838 31.28127474 -0.08126277 36.39648438 -0.08007812 C42.94350949 -0.07987497 49.49010035 -0.10717221 56.03702259 -0.14162254 C61.07714315 -0.16388623 66.11715914 -0.16791581 71.15732384 -0.16685867 C73.5705992 -0.16921561 75.9838774 -0.17804428 78.39710426 -0.19352341 C81.77676205 -0.21317076 85.1554826 -0.2073493 88.53515625 -0.1953125 C89.52712006 -0.20655151 90.51908386 -0.21779053 91.54110718 -0.22937012 C98.82624198 -0.16360776 104.17378339 1.40933061 109.70385742 6.25537109 C110.24268555 6.90634766 110.78151367 7.55732422 111.33666992 8.22802734 C111.8909668 8.87642578 112.44526367 9.52482422 113.01635742 10.19287109 C115.98128488 14.49602257 116.71515929 18.24269752 116.75219727 23.42260742 C116.76495697 24.63769485 116.77771667 25.85278229 116.79086304 27.10469055 C116.79308868 28.40996201 116.79531433 29.71523346 116.79760742 31.06005859 C116.80404157 32.42380409 116.81077038 33.78754823 116.81777954 35.15129089 C116.82973354 38.00673621 116.8334624 40.86206073 116.83227539 43.7175293 C116.83207249 47.35905845 116.85935163 50.99980463 116.89381981 54.64114857 C116.91616717 57.45777372 116.92011054 60.2742129 116.91905594 63.09091759 C116.92253392 65.08051214 116.9441495 67.07004865 116.96615601 69.05952454 C116.92421786 77.40552506 116.15195119 83.0793515 110.49682617 89.53271484 C109.84584961 90.07154297 109.19487305 90.61037109 108.52416992 91.16552734 C107.87577148 91.71982422 107.22737305 92.27412109 106.55932617 92.84521484 C101.29626538 96.47153233 97.0754402 96.30999482 90.89526367 95.68505859 C58.10223291 93.37435126 38.49950794 104.95390457 13.19676208 124.95579529 C9.48549799 127.81071174 7.18768825 128.55262291 2.49682617 128.75146484 C-0.52434547 128.06720716 -1.62154387 126.69347821 -3.53833008 124.29052734 C-3.99243164 121.26611328 -3.99243164 121.26611328 -3.92895508 117.77490234 C-3.91606445 116.52451172 -3.90317383 115.27412109 -3.88989258 113.98583984 C-3.85637695 112.68388672 -3.82286133 111.38193359 -3.78833008 110.04052734 C-3.7702832 108.72310547 -3.75223633 107.40568359 -3.73364258 106.04833984 C-3.68649279 102.79500427 -3.62069052 99.54313109 -3.53833008 96.29052734 C-4.61083008 96.32146484 -5.68333008 96.35240234 -6.78833008 96.38427734 C-12.55339107 96.24015082 -16.33713609 94.35792326 -20.53051758 90.41943359 C-25.50258603 84.96253689 -27.77516679 80.66729833 -27.82885742 73.15844727 C-27.84161713 71.94335983 -27.85437683 70.7282724 -27.86752319 69.47636414 C-27.86974884 68.17109268 -27.87197449 66.86582123 -27.87426758 65.52099609 C-27.88070172 64.1572506 -27.88743054 62.79350646 -27.8944397 61.42976379 C-27.9063937 58.57431848 -27.91012255 55.71899395 -27.90893555 52.86352539 C-27.90873265 49.22199624 -27.93601179 45.58125006 -27.97047997 41.93990612 C-27.99282733 39.12328097 -27.99677069 36.30684179 -27.99571609 33.4901371 C-27.99919408 31.50054254 -28.02080966 29.51100604 -28.04281616 27.52153015 C-28.00087801 19.17552963 -27.22861135 13.50170319 -21.57348633 7.04833984 C-20.92250977 6.50951172 -20.2715332 5.97068359 -19.60083008 5.41552734 C-18.95243164 4.86123047 -18.3040332 4.30693359 -17.63598633 3.73583984 C-11.96442103 -0.17194258 -6.66978817 -0.0060572 0 0 Z M-9.53833008 19.29052734 C-11.41324714 22.58043402 -11.79202921 25.42301319 -11.81298828 29.16918945 C-11.82252029 30.11044174 -11.83205231 31.05169403 -11.84187317 32.02146912 C-11.84096176 33.02678177 -11.84005035 34.03209442 -11.83911133 35.06787109 C-11.84339645 36.11197647 -11.84768158 37.15608185 -11.85209656 38.23182678 C-11.85783091 40.43652624 -11.85834672 42.64124462 -11.85400391 44.84594727 C-11.85084458 48.21256897 -11.87431277 51.57831112 -11.8996582 54.94482422 C-11.90193139 57.0900054 -11.9026346 59.23518895 -11.90161133 61.38037109 C-11.91082108 62.38365952 -11.92003082 63.38694794 -11.92951965 64.42063904 C-11.89420831 69.77451875 -11.63415035 73.70343632 -8.53833008 78.29052734 C-4.0883721 80.89262142 0.68621514 80.65456837 5.71948242 80.84912109 C8.86352267 81.35521304 9.55551113 81.81898536 11.46166992 84.29052734 C11.89404297 86.46704102 11.89404297 86.46704102 11.97338867 88.95849609 C12.0265625 90.29750977 12.0265625 90.29750977 12.08081055 91.66357422 C12.10336914 92.59234375 12.12592773 93.52111328 12.14916992 94.47802734 C12.20041016 95.88858398 12.20041016 95.88858398 12.25268555 97.32763672 C12.3351521 99.64848127 12.40430395 101.96894883 12.46166992 104.29052734 C17.75121885 101.70288165 22.23690495 98.7507572 26.69995117 94.89990234 C45.23034131 79.67447272 62.28665925 78.91289812 85.76318359 80.32344055 C90.76904105 80.56016891 94.22145 80.32157918 98.46166992 77.29052734 C100.13041771 73.91664218 100.71538828 71.15460473 100.73632812 67.41186523 C100.74586014 66.47061295 100.75539215 65.52936066 100.76521301 64.55958557 C100.76430161 63.55427292 100.7633902 62.54896027 100.76245117 61.51318359 C100.76887886 59.94702553 100.76887886 59.94702553 100.7754364 58.34922791 C100.78117076 56.14452844 100.78168657 53.93981006 100.77734375 51.73510742 C100.77418443 48.36848572 100.79765262 45.00274357 100.82299805 41.63623047 C100.82527124 39.49104928 100.82597444 37.34586574 100.82495117 35.20068359 C100.83416092 34.19739517 100.84337067 33.19410675 100.8528595 32.16041565 C100.81796138 26.86918938 100.705669 22.71866795 97.46166992 18.29052734 C92.88655061 15.73328513 88.26981142 16.0013706 83.17675781 16.01586914 C81.78560509 16.00820274 81.78560509 16.00820274 80.36634827 16.00038147 C77.30560829 15.98650006 74.24509385 15.98744111 71.18432617 15.98974609 C69.05350155 15.98585849 66.9226777 15.98152368 64.79185486 15.97676086 C60.32735684 15.96930186 55.86293791 15.96958773 51.3984375 15.97485352 C45.6808107 15.98064892 39.96350775 15.96371371 34.24593449 15.94050884 C29.84584159 15.92576877 25.44582664 15.92490017 21.04571342 15.92801857 C18.93781327 15.92750554 16.82990873 15.92227121 14.72203255 15.91220665 C11.77313379 15.89985391 8.82486543 15.90662706 5.87597656 15.91821289 C4.57361053 15.90674728 4.57361053 15.90674728 3.24493408 15.89505005 C-1.70598587 15.93798788 -5.35680815 16.34103246 -9.53833008 19.29052734 Z " fill="#000000" transform="translate(59.538330078125,63.70947265625)"/>
<path d="M0 0 C8.34468007 4.97590182 13.53387008 11.86345977 16.109375 21.2578125 C17.10789012 32.35758522 16.45884702 41.9922991 9.359375 51.0703125 C3.70168013 57.1280464 -3.34488592 60.84888618 -11.625 61.59375 C-22.35447774 61.83515993 -31.19802606 60.58332943 -39.359375 52.9609375 C-46.75303791 44.73737365 -48.47252567 36.02335615 -48.203125 25.24609375 C-47.72879865 16.86039919 -44.11592977 9.8548755 -37.890625 4.2578125 C-27.15195714 -3.81766573 -12.32399863 -5.91386512 0 0 Z M-29.265625 20.8828125 C-31.46970393 25.46051489 -31.6877889 29.26333661 -30.890625 34.2578125 C-28.56093569 39.09639798 -25.72921048 41.92812319 -20.890625 44.2578125 C-15.89614911 45.0549764 -12.09332739 44.83689143 -7.515625 42.6328125 C-3.93154787 39.39007605 -1.29527259 36.79305354 -0.5078125 31.859375 C-0.25178581 26.17558256 -0.95435568 22.60842595 -4.890625 18.2578125 C-9.24123845 14.32154318 -12.80839506 13.61897331 -18.4921875 13.875 C-23.42586604 14.66246009 -26.02288855 17.29873537 -29.265625 20.8828125 Z " fill="#000000" transform="translate(63.890625,210.7421875)"/>
<path d="M0 0 C8.34468007 4.97590182 13.53387008 11.86345977 16.109375 21.2578125 C17.10789012 32.35758522 16.45884702 41.9922991 9.359375 51.0703125 C3.70168013 57.1280464 -3.34488592 60.84888618 -11.625 61.59375 C-22.35447774 61.83515993 -31.19802606 60.58332943 -39.359375 52.9609375 C-46.75303791 44.73737365 -48.47252567 36.02335615 -48.203125 25.24609375 C-47.72879865 16.86039919 -44.11592977 9.8548755 -37.890625 4.2578125 C-27.15195714 -3.81766573 -12.32399863 -5.91386512 0 0 Z M-29.265625 20.8828125 C-31.46970393 25.46051489 -31.6877889 29.26333661 -30.890625 34.2578125 C-28.56093569 39.09639798 -25.72921048 41.92812319 -20.890625 44.2578125 C-15.89614911 45.0549764 -12.09332739 44.83689143 -7.515625 42.6328125 C-3.93154787 39.39007605 -1.29527259 36.79305354 -0.5078125 31.859375 C-0.25178581 26.17558256 -0.95435568 22.60842595 -4.890625 18.2578125 C-9.24123845 14.32154318 -12.80839506 13.61897331 -18.4921875 13.875 C-23.42586604 14.66246009 -26.02288855 17.29873537 -29.265625 20.8828125 Z " fill="#000000" transform="translate(271.890625,194.7421875)"/>
<path d="M0 0 C8.34468007 4.97590182 13.53387008 11.86345977 16.109375 21.2578125 C17.10789012 32.35758522 16.45884702 41.9922991 9.359375 51.0703125 C3.70168013 57.1280464 -3.34488592 60.84888618 -11.625 61.59375 C-22.35447774 61.83515993 -31.19802606 60.58332943 -39.359375 52.9609375 C-46.75303791 44.73737365 -48.47252567 36.02335615 -48.203125 25.24609375 C-47.72879865 16.86039919 -44.11592977 9.8548755 -37.890625 4.2578125 C-27.15195714 -3.81766573 -12.32399863 -5.91386512 0 0 Z M-29.265625 20.8828125 C-31.46970393 25.46051489 -31.6877889 29.26333661 -30.890625 34.2578125 C-28.56093569 39.09639798 -25.72921048 41.92812319 -20.890625 44.2578125 C-15.89614911 45.0549764 -12.09332739 44.83689143 -7.515625 42.6328125 C-3.93154787 39.39007605 -1.29527259 36.79305354 -0.5078125 31.859375 C-0.25178581 26.17558256 -0.95435568 22.60842595 -4.890625 18.2578125 C-9.24123845 14.32154318 -12.80839506 13.61897331 -18.4921875 13.875 C-23.42586604 14.66246009 -26.02288855 17.29873537 -29.265625 20.8828125 Z " fill="#000000" transform="translate(479.890625,210.7421875)"/>
<path d="M0 0 C5.28 0 10.56 0 16 0 C16 5.28 16 10.56 16 16 C10.72 16 5.44 16 0 16 C0 10.72 0 5.44 0 0 Z " fill="#000000" transform="translate(128,104)"/>
<path d="M0 0 C5.28 0 10.56 0 16 0 C16 5.28 16 10.56 16 16 C10.72 16 5.44 16 0 16 C0 10.72 0 5.44 0 0 Z " fill="#000000" transform="translate(96,104)"/>
<path d="M0 0 C5.28 0 10.56 0 16 0 C16 5.28 16 10.56 16 16 C10.72 16 5.44 16 0 16 C0 10.72 0 5.44 0 0 Z " fill="#000000" transform="translate(64,104)"/>
</svg>
