<?xml version="1.0" encoding="UTF-8"?>
<svg version="1.1" xmlns="http://www.w3.org/2000/svg" width="512" height="512">
<path d="M0 0 C2.00638645 1.54337419 3.83763646 3.20210057 5.69140625 4.92578125 C8.39211888 7.35230985 11.23590431 9.55612516 14.125 11.75 C15.25928963 12.61435367 16.39340102 13.47894129 17.52734375 14.34375 C18.38948486 15.00117187 18.38948486 15.00117187 19.26904297 15.671875 C22.09464405 17.83989614 24.89096946 20.04468769 27.6875 22.25 C35.32712215 28.26789286 43.00560552 34.23535811 50.68554688 40.20166016 C52.96273434 41.97104443 55.23931757 43.74120248 57.515625 45.51171875 C58.2569165 46.08825195 58.99820801 46.66478516 59.76196289 47.25878906 C61.24844449 48.41528375 62.73461234 49.57218184 64.22045898 50.72949219 C68.12446847 53.76922266 72.03538177 56.79945792 75.95703125 59.81640625 C76.76978516 60.44353516 77.58253906 61.07066406 78.41992188 61.71679688 C79.96977691 62.91239933 81.52173228 64.10528605 83.07617188 65.29492188 C86.99371798 68.32195338 90.59303914 71.40562283 94 75 C90.78316553 74.42276315 87.91969616 73.60032676 84.875 72.4375 C73.48220817 68.98720922 59.56945042 69.45146403 49 75 C35.5612473 82.25266019 26.59355227 91.42848419 21.98828125 106.2578125 C18.69754276 119.56966866 19.70118236 131.74035006 26 144 C27.96173496 146.99897413 30.01559385 149.84391953 32.23046875 152.66015625 C33.79115689 154.72384763 34.94154158 156.64967951 36 159 C35.32195312 159.4846875 34.64390625 159.969375 33.9453125 160.46875 C18.5230387 171.11267832 18.5230387 171.11267832 6.60242367 185.32955837 C4.28175026 188.98949738 2.50603152 191.55527021 -1.75755119 192.81430244 C-5.20381837 193.1090467 -8.54575722 193.11345259 -12.00366211 193.02172852 C-13.32282655 193.02281333 -14.64199099 193.02389814 -16.0011301 193.02501583 C-19.55510179 193.02703968 -23.10632072 192.97506662 -26.65964508 192.91152191 C-29.99929548 192.8600864 -33.33883387 192.85784442 -36.67883301 192.85144043 C-46.43208365 192.80430276 -56.18482708 192.67865084 -65.9375 192.5625 C-87.738125 192.376875 -109.53875 192.19125 -132 192 C-132 267.9 -132 343.8 -132 422 C-109.89 422 -87.78 422 -65 422 C-65 381.74 -65 341.48 -65 300 C-52.13 300 -39.26 300 -26 300 C-27.03698701 304.14794803 -28.52513477 306.6866388 -30.75 310.3125 C-35.05825339 317.59389198 -37.71185057 324.85715244 -40 333 C-40.24621094 333.81339844 -40.49242187 334.62679688 -40.74609375 335.46484375 C-42.23392433 341.30329616 -42.23234631 347.25783946 -42.3125 353.25 C-42.33030518 354.11455811 -42.34811035 354.97911621 -42.36645508 355.86987305 C-42.35890674 361.86499153 -41.46799929 366.06525473 -37.4921875 370.79296875 C-36.95851562 371.25316406 -36.42484375 371.71335937 -35.875 372.1875 C-35.35679687 372.65542969 -34.83859375 373.12335938 -34.3046875 373.60546875 C-31.99385104 375.00372064 -29.91760428 375.75629548 -27.35595703 376.5871582 C-26.54144073 376.85301224 -25.72692444 377.11886627 -24.88772583 377.39277649 C-24.26477631 377.59316025 -23.64182678 377.79354401 -23 378 C-22.99191315 378.79656006 -22.98382629 379.59312012 -22.97549438 380.41381836 C-22.89732911 387.94613242 -22.80997353 395.47825885 -22.71247292 403.01034546 C-22.66267458 406.88202378 -22.61634411 410.75367697 -22.578125 414.62548828 C-22.54106291 418.36684538 -22.4946484 422.10798344 -22.44193649 425.84915161 C-22.42350305 427.27153657 -22.40835498 428.69396828 -22.39665604 430.11642456 C-22.30763975 440.5720655 -21.91061859 449.13407211 -16 458 C-13.87396815 459.76323505 -13.87396815 459.76323505 -12 461 C-12 461.66 -12 462.32 -12 463 C-30.50669282 463.07014441 -49.01335858 463.12301477 -67.52015686 463.15543652 C-76.11358082 463.17089199 -84.70692209 463.19195622 -93.30029297 463.22631836 C-100.79205571 463.25626119 -108.28375854 463.2755846 -115.77557945 463.28226548 C-119.74084262 463.28616949 -123.70593444 463.29531678 -127.67114258 463.31719017 C-131.40740259 463.3376326 -135.14342151 463.34381824 -138.87973213 463.33932304 C-140.8964102 463.34053504 -142.91306233 463.35663644 -144.92967224 463.3732605 C-153.09200613 463.34553787 -159.57428709 462.73523211 -166.3125 457.75 C-172.26128418 451.66287201 -172.43899473 445.5442468 -172.39872742 437.43946838 C-172.40537424 436.38809801 -172.41202107 435.33672763 -172.41886932 434.25349754 C-172.43749312 430.73734017 -172.43489436 427.22152327 -172.43237305 423.70532227 C-172.44139055 421.18214945 -172.45171774 418.65898102 -172.46325684 416.13581848 C-172.48513926 410.70710337 -172.4979238 405.27848858 -172.50238609 399.84973335 C-172.50885354 392.00076421 -172.53180135 384.15191075 -172.55872939 376.30298828 C-172.60197605 363.56764975 -172.6319549 350.8323161 -172.65356445 338.09692383 C-172.6745805 325.72808434 -172.70186106 313.35928475 -172.73754883 300.99047852 C-172.73974765 300.22764671 -172.74194648 299.46481491 -172.74421193 298.67886699 C-172.75528174 294.85183889 -172.76647452 291.02481116 -172.77772844 287.19778359 C-172.87088351 255.46522194 -172.94227389 223.73264648 -173 192 C-173.81911865 192.82999512 -174.6382373 193.65999023 -175.48217773 194.51513672 C-176.5700234 195.61177898 -177.65800245 196.70828895 -178.74609375 197.8046875 C-179.28439819 198.35084717 -179.82270264 198.89700684 -180.37731934 199.4597168 C-187.435115 206.55787347 -193.74569803 210.44378612 -204 211 C-213.60104071 210.32309209 -219.19092278 206.19748682 -225.484375 199.1953125 C-230.07763018 192.54219547 -229.66971647 184.75085191 -229 177 C-227.76413623 171.52823675 -224.08653893 167.7955019 -220.4375 163.6875 C-219.78932312 162.94882942 -219.78932312 162.94882942 -219.12805176 162.19523621 C-216.08461716 158.86966502 -213.04728899 156.29015852 -209.27441406 153.81445312 C-201.79572519 148.44441969 -195.64767952 142.6045772 -193.95169067 133.30239868 C-192.28642688 120.63443078 -192.85697154 107.71068648 -193.23181152 94.97479248 C-193.36711683 89.67199125 -193.39240204 84.36869571 -193.42773438 79.06445312 C-193.51255654 68.70633408 -193.7169996 58.35447117 -194 48 C-181.0079109 47.94452977 -168.04595381 47.98043735 -155.0625 48.5 C-150.751875 48.665 -146.44125 48.83 -142 49 C-142 65.83 -142 82.66 -142 100 C-132.92515159 92.58292695 -132.92515159 92.58292695 -124 85 C-119.01189705 80.69878336 -113.95773996 76.49510655 -108.84375 72.34375 C-105.52313514 69.60697951 -102.25953218 66.8089705 -99 64 C-94.01059233 59.70027287 -88.95778844 55.49514591 -83.84375 51.34375 C-80.52313514 48.60697951 -77.25953218 45.8089705 -74 43 C-69.01059233 38.70027287 -63.95778844 34.49514591 -58.84375 30.34375 C-55.52313082 27.60697595 -52.25965516 24.80883305 -49 22 C-43.92368552 17.6288057 -38.80746072 13.31781434 -33.59765625 9.10546875 C-31.82147467 7.66582683 -30.05896167 6.20920001 -28.30859375 4.73828125 C-27.01115234 3.66126953 -27.01115234 3.66126953 -25.6875 2.5625 C-24.92824219 1.92441406 -24.16898438 1.28632813 -23.38671875 0.62890625 C-16.00478939 -4.40916992 -7.66700657 -4.16039116 0 0 Z " fill="#000000" transform="translate(229,26)"/>
<path d="M0 0 C2.18793731 1.87611726 4.04657567 3.86486178 6 6 C8.92832763 4.80697763 10.16858147 3.7986388 12.25 1.3125 C15 -1 15 -1 18.5625 -1.1875 C32.53811719 1.68599139 46.53954381 12.63854798 56 23 C59.74391176 20.63542415 63.1517058 18.07656355 66.5625 15.25 C85.98377193 -0.42741228 85.98377193 -0.42741228 96.625 -1.1875 C100.46495106 0.73247553 103.14202594 3.84552143 106 7 C107.1446875 5.8553125 107.1446875 5.8553125 108.3125 4.6875 C109.6428125 3.3571875 109.6428125 3.3571875 111 2 C111.433125 1.38125 111.86625 0.7625 112.3125 0.125 C114.81075184 -1.54050122 116.97217453 -0.88665498 119.8269043 -0.47705078 C123.25792302 0.27614668 126.21597724 1.79285436 129.25 3.5 C129.89549805 3.85529785 130.54099609 4.2105957 131.20605469 4.57666016 C137.56823595 8.16851754 143.35777002 12.36031502 149 17 C149.93585938 17.75925781 150.87171875 18.51851562 151.8359375 19.30078125 C168.11484084 33.23132738 178.90357052 53.77316106 182 75 C182.02836469 76.66642528 182.03477504 78.33369616 182 80 C181.10539063 79.95359375 180.21078125 79.9071875 179.2890625 79.859375 C171.43276471 79.62485865 164.8917257 79.95161889 158 84 C157.21689453 84.81017578 157.21689453 84.81017578 156.41796875 85.63671875 C155 87 155 87 152 87 C151.72285156 85.80761719 151.44570313 84.61523438 151.16015625 83.38671875 C150.79434477 81.82029523 150.42845529 80.25388993 150.0625 78.6875 C149.88009766 77.90181641 149.69769531 77.11613281 149.50976562 76.30664062 C149.33251953 75.54931641 149.15527344 74.79199219 148.97265625 74.01171875 C148.81031494 73.31522217 148.64797363 72.61872559 148.48071289 71.90112305 C148.06234435 70.2465594 147.53968631 68.61905892 147 67 C146.97088997 70.89581756 146.95316413 74.791607 146.9375 78.6875 C146.92912109 79.79029297 146.92074219 80.89308594 146.91210938 82.02929688 C146.90888672 83.09599609 146.90566406 84.16269531 146.90234375 85.26171875 C146.89710693 86.24100342 146.89187012 87.22028809 146.88647461 88.22924805 C146.92239076 91.00003215 146.92239076 91.00003215 147.56469727 93.65551758 C148 96 148 96 147.0625 99.25 C144.62125957 107.86614269 146.12633035 114.99441606 150 123 C151.82889707 125.82809937 153.80541322 128.44696405 156 131 C155.21496094 131.67804688 154.42992187 132.35609375 153.62109375 133.0546875 C135.60116579 148.89603545 126.59073204 169.13901943 125 193 C125 198.53568207 125.2032004 203.6795039 129 208 C132.63143917 210.21044123 135.85671075 211.24156739 140 212 C139.60179902 219.12642447 138.73900201 226.10199947 137.5 233.125 C137.36940186 233.87128662 137.23880371 234.61757324 137.10424805 235.38647461 C136.13217405 240.73565189 136.13217405 240.73565189 135 243 C137.97 243 140.94 243 144 243 C144.07443657 247.87464091 144.12873667 252.74894728 144.16479492 257.62402344 C144.17983465 259.28065763 144.20027177 260.93725231 144.22631836 262.59375 C144.26291515 264.9818703 144.27977439 267.36946188 144.29296875 269.7578125 C144.30845261 270.49242706 144.32393646 271.22704163 144.33988953 271.98391724 C144.34171041 277.61127135 143.12409866 281.69728395 139.28125 285.86328125 C138.6934375 286.34152344 138.105625 286.81976563 137.5 287.3125 C136.9121875 287.80363281 136.324375 288.29476563 135.71875 288.80078125 C131.32277825 291.86797063 126.12472044 291.42505506 121 291 C115.5548127 289.21984261 112.21773607 285.611739 109 281 C107.89023959 277.67071876 107.87969105 275.19972643 107.88647461 271.69262695 C107.88655014 270.39150467 107.88662567 269.09038239 107.88670349 267.74983215 C107.89181015 266.3293148 107.89702615 264.90879783 107.90234375 263.48828125 C107.90420909 262.03525338 107.90563244 260.58222489 107.90663147 259.12919617 C107.91044754 255.30693828 107.92027007 251.48471845 107.93133545 247.66247559 C107.94156913 243.76131709 107.94613329 239.86015243 107.95117188 235.95898438 C107.96189314 228.30597224 107.97895865 220.65299146 108 213 C107.34 213 106.68 213 106 213 C106.01110306 213.80908813 106.02220612 214.61817627 106.03364563 215.45178223 C106.13410911 223.1016317 106.21009654 230.75115831 106.25906086 238.40149689 C106.28508102 242.33403316 106.32033773 246.26602131 106.37719727 250.19824219 C106.43179153 253.99787226 106.46147748 257.79697738 106.47438622 261.5969696 C106.48357737 263.04180661 106.50152556 264.48661703 106.52865028 265.93122864 C106.79795683 280.87749076 106.79795683 280.87749076 101 287 C96.26741827 291.08276307 91.7483167 291.57790399 85.58203125 291.31640625 C80.4448397 290.68688656 77.81749386 288.83607327 74.25 285.1875 C70.56904572 279.97281477 69.74911653 275.48411998 69.77294922 269.16845703 C69.77265717 268.51409164 69.77236511 267.85972626 69.77206421 267.18553162 C69.77344712 265.04281924 69.78895853 262.90046343 69.8046875 260.7578125 C69.80842134 259.2642333 69.81126656 257.77065163 69.81326294 256.27706909 C69.82087022 252.36109562 69.84049347 248.44527236 69.8626709 244.52935791 C69.88319217 240.52740511 69.89227805 236.52542784 69.90234375 232.5234375 C69.92374235 224.68222301 69.95784287 216.84113024 70 209 C69.24214706 208.86894867 68.48429413 208.73789734 67.70347595 208.60287476 C66.21431419 208.33998154 66.21431419 208.33998154 64.69506836 208.07177734 C63.71034042 207.89947601 62.72561249 207.72717468 61.71104431 207.5496521 C55.96013483 206.38368094 51.20617345 203.4707823 46.375 200.25 C41.75714537 192.69351061 46.56219325 179.67861553 48.1875 171.4375 C48.50712863 169.78566694 48.82621682 168.13372921 49.14477539 166.48168945 C51.63437671 153.62817333 54.24446117 140.79923614 57 128 C53.83318289 127.80002777 53.83318289 127.80002777 50.5625 129.5 C47 131 47 131 43 131 C43.00276538 131.75206789 43.00553076 132.50413578 43.00837994 133.27899361 C43.0746454 151.58210124 43.12428332 169.88518491 43.15543652 188.18838692 C43.17090257 197.03969761 43.19198708 205.89092821 43.22631836 214.7421875 C43.25622873 222.45733375 43.27557691 230.172422 43.28226548 237.88762462 C43.28617497 241.97242913 43.29535732 246.0570677 43.31719017 250.141819 C43.33758124 253.98805494 43.34382854 257.83405686 43.33932304 261.68034172 C43.34014708 263.09043462 43.34609726 264.5005355 43.35761642 265.91058159 C43.37259968 267.8395913 43.36715278 269.76872711 43.36076355 271.69778442 C43.36352893 272.77628222 43.36629431 273.85478001 43.36914349 274.96595955 C42.62898372 281.04943317 39.56590088 285.08637067 35 289 C30.41294746 291.75223152 25.18762958 291.51792759 20 291 C14.5548127 289.21984261 11.21773607 285.611739 8 281 C6.99258512 277.97775535 6.87662708 275.97677299 6.87974548 272.81782532 C6.87768349 271.20874298 6.87768349 271.20874298 6.87557983 269.56715393 C6.88097275 267.80201698 6.88097275 267.80201698 6.88647461 266.0012207 C6.88632858 264.76207916 6.88618256 263.52293762 6.8860321 262.24624634 C6.88660985 258.84774828 6.89162902 255.44931079 6.89860606 252.05082345 C6.90485259 248.49939416 6.90544443 244.94796409 6.90663147 241.39653015 C6.90974095 234.67113007 6.91794918 227.94574623 6.92798096 221.22035331 C6.93915399 213.56384157 6.94465555 205.90732907 6.94967639 198.25081122 C6.9601321 182.50053141 6.97772414 166.7502678 7 151 C6.34 151 5.68 151 5 151 C5.00368717 151.65322518 5.00737434 152.30645037 5.01117325 152.97947025 C5.09958385 168.8878463 5.16573845 184.79613667 5.20724869 200.70469761 C5.22785729 208.39802954 5.25594511 216.09119729 5.30175781 223.78442383 C5.34167798 230.49133778 5.36744519 237.19813281 5.37635398 243.90516227 C5.38156004 247.45519515 5.39376002 251.00488784 5.42292023 254.55481148 C5.45524007 258.52171234 5.45595607 262.48828307 5.45410156 266.45532227 C5.46848267 267.62704987 5.48286377 268.79877747 5.49768066 270.00601196 C5.45985764 277.48052791 4.6601297 282.29095988 -0.75390625 287.77734375 C-6.3520854 291.36840035 -11.43787375 292.0725615 -18 291 C-20.85364667 289.96686957 -22.53650747 288.87439649 -25 287 C-26.1670663 283.49880111 -26.08989693 280.41065159 -26.02172852 276.7746582 C-26.01212097 276.04270233 -26.00251343 275.31074646 -25.99261475 274.55661011 C-25.95964093 272.13790214 -25.9193025 269.7193757 -25.87890625 267.30078125 C-25.85460355 265.62355692 -25.83076006 263.94632588 -25.80735779 262.26908875 C-25.74453178 257.8549332 -25.67546091 253.44089652 -25.60510254 249.02685547 C-25.53440572 244.52251599 -25.46959682 240.01809225 -25.40429688 235.51367188 C-25.27530365 226.67568865 -25.13971499 217.83781978 -25 209 C-24.38954834 209.16081055 -23.77909668 209.32162109 -23.15014648 209.48730469 C-18.14626056 210.68046472 -12.86795415 210.71538669 -8.0625 208.875 C-4.63223533 205.75657757 -3.17900425 202.33527493 -2.56640625 197.765625 C-2.54205141 175.84627308 -9.19860903 155.36192101 -24 139 C-25.34617398 137.84066156 -26.71683706 136.70820226 -28.125 135.625 C-31 133 -31 133 -31.8125 129.875 C-31.01450774 126.06919075 -29.85894438 123.74683228 -28 120.375 C-24.1674363 113.11855831 -23.45552481 106.28085707 -25.7734375 98.35546875 C-27.19950871 94.91578498 -28.61893247 92.40284282 -31.1875 89.6875 C-34.16434585 85.27355615 -33.83373576 80.21238402 -34 75 C-34.66 77.97 -35.32 80.94 -36 84 C-36.58265625 83.71125 -37.1653125 83.4225 -37.765625 83.125 C-47.26792787 78.8220704 -56.12258677 78.96079593 -66 82 C-65.33839538 62.68114516 -59.87230837 43.81885256 -47 29 C-46.36835938 28.2265625 -45.73671875 27.453125 -45.0859375 26.65625 C-37.17350669 17.33396788 -13.53365274 -5.4134611 0 0 Z " fill="#000000" transform="translate(292,185)"/>
<path d="M0 0 C0.66 0.99 1.32 1.98 2 3 C4.46800047 1.84826645 6.04783565 0.95216435 8 -1 C18.53530915 0.14740991 26.52746515 8.2158286 33 16 C42.8935736 29.38739925 48.31893152 45.19973921 48.4375 61.8125 C48.47037109 62.64458984 48.50324219 63.47667969 48.53710938 64.33398438 C48.59016723 70.34881548 48.59016723 70.34881548 45.6953125 73.54296875 C42.16314323 75.45238779 39.95935692 75.57590646 36 75 C32.66187276 72.45248184 31.3299463 70.26351184 30.71875 66.07055664 C30.61046875 65.00115845 30.61046875 65.00115845 30.5 63.91015625 C30.4175 63.12576172 30.335 62.34136719 30.25 61.53320312 C30.1675 60.71787109 30.085 59.90253906 30 59.0625 C29.83595363 57.4489502 29.66937157 55.83565577 29.5 54.22265625 C29.4278125 53.50859619 29.355625 52.79453613 29.28125 52.05883789 C28.99794832 49.98498103 28.54523437 48.01935502 28 46 C27.44744103 58.52028458 29.09960444 69.99486449 31.5 82.25 C32.00314964 84.88249052 32.50217548 87.51570331 32.9979248 90.14959717 C33.30439482 91.77105951 33.61574848 93.39160893 33.93273926 95.01104736 C34.59027649 98.43075126 35 101.50205954 35 105 C31.7 105 28.4 105 25 105 C25.01571045 106.41740479 25.0314209 107.83480957 25.04760742 109.29516602 C25.10204862 114.57114952 25.13640189 119.84710833 25.16479492 125.12329102 C25.17984918 127.40360698 25.20029708 129.68389414 25.22631836 131.96411133 C25.26284894 135.24828209 25.27976039 138.53206885 25.29296875 141.81640625 C25.31619453 143.33712486 25.31619453 143.33712486 25.33988953 144.88856506 C25.34126421 150.71546617 24.84690342 154.87214642 22 160 C19.13699641 162.4653642 17.30591356 162.95550348 13.5625 163.5 C8.10881295 162.73457024 5.83543024 159.83543024 2 156 C1.773125 156.598125 1.54625 157.19625 1.3125 157.8125 C-0.42429529 160.70715882 -1.9183036 161.63035715 -5 163 C-8.73420699 163.40009361 -11.24398857 163.29209532 -14.75 161.9375 C-18.36299773 158.82630751 -19.77259482 155.17561395 -20.2593689 150.51858521 C-20.34613009 147.61307966 -20.33735878 144.72286357 -20.29296875 141.81640625 C-20.28872391 140.76090073 -20.28447906 139.7053952 -20.28010559 138.61790466 C-20.26339049 135.26583729 -20.22575088 131.9143839 -20.1875 128.5625 C-20.17244393 126.28190976 -20.15875714 124.00131004 -20.14648438 121.72070312 C-20.11351034 116.14690093 -20.06177702 110.57355436 -20 105 C-22.97 105 -25.94 105 -29 105 C-28.48746246 99.2842333 -27.6264107 93.6777034 -26.58984375 88.03515625 C-26.45768463 87.3125058 -26.32552551 86.58985535 -26.18936157 85.8453064 C-25.63487898 82.8245585 -25.0773302 79.80446755 -24.50854492 76.78637695 C-22.9466359 68.46847042 -21.6029545 60.50691099 -22 52 C-22.08636719 53.16917969 -22.17273438 54.33835937 -22.26171875 55.54296875 C-22.40247186 57.09125301 -22.54446445 58.63942493 -22.6875 60.1875 C-22.74099609 60.95642578 -22.79449219 61.72535156 -22.84960938 62.51757812 C-23.26354489 66.71092481 -23.70086864 68.62168681 -26.390625 72.0234375 C-29 74 -29 74 -32.0625 74.4375 C-34.91556699 74.01257513 -36.66322963 73.66912169 -39 72 C-44.10542727 63.63734673 -40.5612125 51.18001102 -38.5390625 42.14453125 C-34.25076242 25.08455484 -24.41117318 10.1496698 -9.25 0.9375 C-5.81185593 -1.05535018 -3.79951656 -1.3021522 0 0 Z " fill="#000000" transform="translate(464,317)"/>
<path d="M0 0 C0.639375 0.4125 1.27875 0.825 1.9375 1.25 C2.68 1.62125 3.4225 1.9925 4.1875 2.375 C4.765 2.66375 5.3425 2.9525 5.9375 3.25 C7.5875 1.93 9.2375 0.61 10.9375 -0.75 C28.54879751 7.40498505 38.47274612 19.25026238 45.25341797 37.33642578 C48.15574722 45.45507556 49.21123237 53.2399935 49.375 61.8125 C49.39747803 62.58706543 49.41995605 63.36163086 49.44311523 64.15966797 C49.42796697 67.6903781 49.23210569 69.83625707 47.16015625 72.74609375 C44.82237982 74.32789327 43.72384211 74.7935366 40.9375 74.75 C39.9475 74.76546875 39.9475 74.76546875 38.9375 74.78125 C35.79858415 73.94747548 34.83070601 72.9283883 32.9375 70.25 C32.03859708 66.78767132 31.6426725 63.30091576 31.25 59.75 C31.0184569 57.86439485 30.78543944 55.97897002 30.55078125 54.09375 C30.45579346 53.26037109 30.36080566 52.42699219 30.26293945 51.56835938 C29.95923802 49.40485692 29.51044625 47.35635765 28.9375 45.25 C28.89991577 46.55203369 28.89991577 46.55203369 28.86157227 47.88037109 C28.76650516 51.09713163 28.66726797 54.31372849 28.56518555 57.53027344 C28.52184154 58.9231259 28.48016604 60.31603131 28.44018555 61.70898438 C28.38247068 63.70976651 28.31828131 65.71035859 28.25390625 67.7109375 C28.21724854 68.91540527 28.18059082 70.11987305 28.14282227 71.36083984 C27.9375 74.25 27.9375 74.25 26.9375 76.25 C26.83103157 78.66434752 26.78335588 81.05106617 26.77978516 83.46606445 C26.77470444 84.20934998 26.76962372 84.9526355 26.76438904 85.71844482 C26.75367701 87.33519113 26.7450601 88.95195233 26.73826981 90.56871986 C26.72649244 93.12850851 26.70704207 95.68812755 26.68515015 98.24784851 C26.62349924 105.52674712 26.56950537 112.80562932 26.53613281 120.0847168 C26.51517798 124.53513108 26.47986623 128.98523782 26.43537521 133.4354763 C26.42121906 135.13107874 26.41249364 136.82673562 26.40932083 138.52239418 C26.40440761 140.89717356 26.38123938 143.27113833 26.35400391 145.64575195 C26.35851311 146.69408455 26.35851311 146.69408455 26.3631134 147.76359558 C26.2894822 152.09048991 25.55472567 154.79268117 22.9375 158.25 C20.22325479 160.37738138 18.4135723 161.17909561 15 161.6875 C11.07457473 161.12672496 8.98952395 159.74711051 5.9375 157.25 C4.5625 155 4.5625 155 3.9375 153.25 C3.545625 154.013125 3.15375 154.77625 2.75 155.5625 C0.70091338 158.60080086 -0.7250017 159.77529145 -4.0625 161.25 C-7.97124297 161.83215321 -9.75596078 161.40326961 -13.3125 159.625 C-17.32378628 156.1607073 -17.93946434 152.87365073 -18.33424377 147.66390991 C-18.3545099 146.3208116 -18.36432444 144.97752805 -18.36547852 143.63427734 C-18.37391785 142.89499496 -18.38235718 142.15571259 -18.39105225 141.39402771 C-18.41675753 138.95799052 -18.42897042 136.52207539 -18.44140625 134.0859375 C-18.45761405 132.37121667 -18.47479738 130.65650481 -18.49290466 128.94180298 C-18.53855038 124.42204029 -18.5733308 119.90226438 -18.60510254 115.38238525 C-18.65692922 108.20025592 -18.72343717 101.01826535 -18.79331779 93.83629227 C-18.81562808 91.35981603 -18.8322476 88.88335499 -18.84803772 86.40682983 C-18.93774051 75.00051548 -19.41694168 63.63787575 -20.0625 52.25 C-20.24175018 54.21208405 -20.24175018 54.21208405 -20.42462158 56.21380615 C-20.4918404 56.94958767 -20.55905922 57.68536919 -20.62831497 58.44344711 C-20.76664067 59.98794895 -20.89505791 61.53334335 -21.01855469 63.07910156 C-21.39505056 66.67540377 -21.7270391 68.78838287 -23.890625 71.765625 C-26.85126456 73.78908369 -28.67090848 73.83033396 -32.16015625 73.62890625 C-34.0625 73.25 -34.0625 73.25 -36.5 71.6875 C-39.90272735 66.37924534 -39.13545553 60.14435116 -38.375 54.125 C-38.28250977 53.38290283 -38.19001953 52.64080566 -38.09472656 51.8762207 C-35.75486421 34.71292439 -28.6847037 18.1819765 -15.21484375 6.85546875 C-4.06046877 -1.4765341 -4.06046877 -1.4765341 0 0 Z " fill="#000000" transform="translate(236.0625,315.75)"/>
<path d="M0 0 C10.10238105 6.33403257 16.8510876 15.40435038 19.75 27 C20.73220218 38.78642616 19.3418604 49.12433148 11.9375 58.75 C4.9394627 66.87675299 -3.18224561 72.54812162 -14.1640625 73.4453125 C-26.03623098 73.96512598 -35.72764368 71.70887023 -45 63.91015625 C-53.57449191 55.72084659 -57.5388665 46.1059277 -58.09375 34.30078125 C-57.80044663 23.97405858 -54.20415002 14.5108987 -47.078125 6.96484375 C-34.23664301 -4.75674155 -15.6923242 -8.44396493 0 0 Z " fill="#000000" transform="translate(318,109)"/>
<path d="M0 0 C9.49696555 6.6333767 15.52917204 15.25559901 17.796875 26.6796875 C18.71060491 39.64762348 16.32355598 49.69602535 8.08203125 59.77734375 C1.93549059 66.5020866 -6.67613933 71.37587856 -15.8984375 71.8828125 C-29.67072852 72.13236704 -38.57418837 70.16866265 -49.203125 60.6796875 C-56.3832052 52.4421773 -60.18729987 43.6306751 -60.203125 32.6796875 C-59.42184552 21.94064593 -55.91290213 12.38946463 -48.203125 4.6796875 C-33.89437876 -6.64214352 -16.15299204 -9.6803392 0 0 Z " fill="#000000" transform="translate(419.203125,110.3203125)"/>
<path d="M0 0 C5.29716516 3.52163387 9.18644269 8.33422245 11.109375 14.40234375 C12.04416928 23.31323984 10.97651366 29.22451313 5.921875 36.58984375 C1.20423744 41.30748131 -4.13107779 43.9188607 -10.82421875 44.4296875 C-17.52142153 44.34106667 -22.90445662 42.57541883 -28.09375 38.2890625 C-32.89425962 33.2485274 -35.16214812 27.64530901 -35.390625 20.71484375 C-35.00981386 13.58966697 -32.45869304 8.20677037 -27.6796875 2.98046875 C-19.75594115 -4.00903676 -9.2666243 -4.61688196 0 0 Z " fill="#000000" transform="translate(478.890625,271.59765625)"/>
<path d="M0 0 C4.64837492 4.75401981 7.26796486 10.07192415 7.77734375 16.74609375 C7.67514217 24.46961338 5.20648373 30.31872823 -0.25 35.8125 C-6.37591118 40.39039475 -12.76458961 41.64154224 -20.25 40.8125 C-27.39407807 38.94001209 -32.16297437 34.89209215 -36.25 28.8125 C-39.18419642 22.80672003 -39.35027867 15.9350631 -37.6328125 9.5 C-34.80319012 3.08952807 -29.53824133 -1.57836063 -23.3125 -4.625 C-14.39176718 -6.26350195 -7.5379348 -5.07360996 0 0 Z " fill="#000000" transform="translate(256.25,274.1875)"/>
</svg>
