<?xml version="1.0" encoding="UTF-8"?>
<svg version="1.1" xmlns="http://www.w3.org/2000/svg" width="512" height="512">
<path d="M0 0 C2.12418434 -0.00966307 4.24738141 -0.04073025 6.37133789 -0.07226562 C17.53032787 -0.1600509 28.46148874 0.40638521 37.26391602 7.99414062 C41.84338482 12.6795402 45.64195846 17.93653438 49.45922852 23.24023438 C50.46946113 24.63229504 51.47988519 26.0242168 52.49047852 27.41601562 C54.11387631 29.65636929 55.73353424 31.89914849 57.34521484 34.14794922 C60.25363198 38.20582877 63.19175818 42.23619135 66.18969727 46.22851562 C77.60059693 61.43509113 86.09345963 73.52782971 84.45922852 93.24023438 C82.35333238 102.82955528 78.20445376 111.15513146 73.45922852 119.67773438 C72.7952049 120.89051141 72.13229806 122.10390052 71.47045898 123.31787109 C70.13032476 125.77163799 68.78373751 128.22166684 67.4309082 130.66845703 C64.98981439 135.08476993 62.58080193 139.51842271 60.17016602 143.95141602 C58.26560353 147.45063912 56.35212369 150.94493171 54.4362793 154.43798828 C52.36184526 158.26444308 52.30650768 161.32246464 52.33422852 165.61523438 C52.33616211 166.32679688 52.3380957 167.03835938 52.34008789 167.77148438 C52.38998577 173.95882117 52.80658528 180.08674102 53.45922852 186.24023438 C54.78374023 185.51707031 54.78374023 185.51707031 56.13500977 184.77929688 C69.20267227 177.82062009 80.63916569 175.67200083 95.44360352 178.88867188 C103.20129573 181.27733982 110.69818191 186.30919089 114.73657227 193.52148438 C114.97504883 194.08867187 115.21352539 194.65585937 115.45922852 195.24023438 C116.44922852 194.91023437 117.43922852 194.58023438 118.45922852 194.24023438 C131.49454412 193.33767563 141.07791773 194.76375495 151.47485352 203.29882812 C154.45691525 206.21631765 156.72272101 209.44435113 158.45922852 213.24023438 C158.45922852 213.90023437 158.45922852 214.56023437 158.45922852 215.24023438 C159.12567383 215.19382812 159.79211914 215.14742187 160.47875977 215.09960938 C170.97650408 214.6885089 179.39513555 217.4641121 187.45922852 224.27539062 C194.88197296 231.56765714 199.48993164 241.88569808 199.83422852 252.36523438 C199.45922852 256.24023438 199.45922852 256.24023438 198.71704102 258.92382812 C197.95472483 261.81984372 197.3781838 264.24157995 197.45922852 267.24023438 C199.18586681 269.50365141 201.05451658 270.90606516 203.34985352 272.58007812 C208.99975025 277.02675611 210.043192 283.97104852 211.16235352 290.72460938 C211.45922852 293.24023438 211.45922852 293.24023438 211.45922852 297.24023438 C212.28648437 297.22452393 213.11374023 297.20881348 213.96606445 297.19262695 C217.71371629 297.13027133 221.46125897 297.09124091 225.20922852 297.05273438 C227.1621582 297.0150293 227.1621582 297.0150293 229.15454102 296.9765625 C230.40493164 296.96689453 231.65532227 296.95722656 232.94360352 296.94726562 C234.09570312 296.93155518 235.24780273 296.91584473 236.43481445 296.8996582 C239.75345681 297.27336712 241.11368222 297.9052679 243.45922852 300.24023438 C243.95532227 302.39648438 243.95532227 302.39648438 243.89672852 304.74023438 C243.89543945 305.51367188 243.89415039 306.28710938 243.89282227 307.08398438 C243.35530946 309.75702103 242.63303431 310.62343551 240.45922852 312.24023438 C236.75597847 313.52256205 233.09893364 313.36036993 229.2121582 313.35375977 C228.12863571 313.35397881 228.12863571 313.35397881 227.02322388 313.35420227 C224.64248624 313.35350721 222.26182744 313.34573388 219.88110352 313.33789062 C218.2277226 313.336025 216.57434114 313.33460178 214.92095947 313.33360291 C210.57428454 313.3297891 206.22764315 313.31996852 201.88098145 313.30889893 C197.44352675 313.29866036 193.00606662 313.29410004 188.56860352 313.2890625 C179.86546314 313.27834523 171.16235 313.26128246 162.45922852 313.24023438 C162.78922852 314.23023438 163.11922852 315.22023438 163.45922852 316.24023438 C164.90280276 327.81249352 158.39369428 337.63843245 153.07836914 347.46313477 C152.08589217 349.29965588 151.10408344 351.14159243 150.12329102 352.984375 C139.20697277 373.36619516 139.20697277 373.36619516 132.45922852 376.24023438 C126.94733136 376.96148813 122.37297658 377.2030814 117.33032227 374.66601562 C113.96326456 371.82119544 112.30409678 368.86427676 110.52172852 364.92773438 C110.07796875 363.99864258 110.07796875 363.99864258 109.62524414 363.05078125 C109.31393555 362.39529297 109.00262695 361.73980469 108.68188477 361.06445312 C108.32852051 360.34040283 107.97515625 359.61635254 107.61108398 358.87036133 C106.45922852 356.24023438 106.45922852 356.24023438 105.3581543 352.7409668 C101.96158852 342.78060825 96.83114276 338.72279658 87.53526306 334.05882263 C84.77346213 332.73396692 81.99346223 331.45466826 79.20922852 330.17773438 C77.35687052 329.28951752 75.50658602 328.39696291 73.65844727 327.5 C69.42552729 325.44928044 65.17596015 323.44077461 60.89802551 321.4855957 C58.45922852 320.24023438 58.45922852 320.24023438 56.19364929 318.64428711 C46.68816012 312.23702465 35.96296777 313.38428662 24.94750977 313.43554688 C22.7660323 313.42428386 20.58456695 313.41039763 18.40312195 313.39401245 C12.69354504 313.35810798 6.98450507 313.35758411 1.27484131 313.36468506 C-4.56418345 313.36560066 -10.40300988 313.33270104 -16.24194336 313.30273438 C-27.67494236 313.24899748 -39.10766007 313.23267523 -50.54077148 313.24023438 C-50.53633026 314.0972142 -50.53188904 314.95419403 -50.52731323 315.83714294 C-50.48711468 323.94292249 -50.45672539 332.0486682 -50.43714714 340.1545248 C-50.42674317 344.32107764 -50.41264636 348.48754759 -50.38989258 352.65405273 C-50.36804273 356.68057626 -50.35617743 360.70702043 -50.351017 364.73359871 C-50.34734292 366.26406159 -50.34016878 367.79452049 -50.32931137 369.32494926 C-50.1774446 391.63403242 -50.1774446 391.63403242 -58.07592773 399.83398438 C-65.49230607 406.7266549 -73.05381724 407.69735191 -82.82983398 407.63867188 C-83.89189056 407.64154205 -84.95394714 407.64441223 -86.04818726 407.64736938 C-88.28204892 407.64940179 -90.51592871 407.64392987 -92.74975586 407.63134766 C-96.16227009 407.61525089 -99.57360573 407.63124147 -102.98608398 407.65039062 C-105.16316992 407.64840867 -107.34025513 407.64456599 -109.51733398 407.63867188 C-111.04096054 407.64778091 -111.04096054 407.64778091 -112.59536743 407.65707397 C-118.74460825 407.59616728 -123.48112591 407.09638809 -128.18530273 402.70507812 C-132.73032977 396.76158123 -133.52282085 392.7058137 -132.54077148 385.24023438 C-130.5463916 380.43077846 -126.94354943 376.64202643 -123.37332153 372.92967224 C-112.19843167 360.72447519 -111.76520515 350.10741524 -112.15795898 334.08789062 C-112.16741043 331.69235334 -112.17064178 329.29678433 -112.16799927 326.90122986 C-112.17557336 320.64192081 -112.25786657 314.38596707 -112.35943604 308.12756348 C-112.50726698 298.09075508 -112.52984519 288.05258045 -112.57138443 278.01489067 C-112.59501736 274.52804806 -112.64457462 271.04239513 -112.69967651 267.55592346 C-112.72230581 265.40780891 -112.74470756 263.25969194 -112.7668457 261.11157227 C-112.78870438 260.15500229 -112.81056305 259.19843231 -112.83308411 258.21287537 C-112.89458126 249.29355849 -110.79136951 241.65072703 -106.16577148 233.99023438 C-105.55733398 232.97960937 -104.94889648 231.96898437 -104.32202148 230.92773438 C-102.87503978 228.744569 -101.44510778 226.89371041 -99.66577148 224.99023438 C-96.96971869 221.50122487 -96.28861523 218.55053038 -96.54077148 214.24023438 C-97.7294048 207.17034246 -101.18972706 201.9330154 -106.54077148 197.24023438 C-114.07460259 192.37697773 -121.6705731 191.31055884 -130.54077148 192.24023438 C-137.7809749 194.33958614 -141.94890589 198.2270449 -146.16577148 204.34960938 C-147.54077148 206.24023438 -147.54077148 206.24023438 -149.54077148 207.24023438 C-154.49518981 207.47996429 -157.14065878 207.45741179 -161.54077148 205.24023438 C-167.94671894 204.20468648 -173.27129852 205.50097954 -178.54077148 209.24023438 C-181.93557715 212.38516855 -184.16029591 215.82271253 -185.54077148 220.24023438 C-185.59840552 223.83412803 -185.41194944 227.37435958 -185.22045898 230.96289062 C-185.54077148 234.24023438 -185.54077148 234.24023438 -187.40014648 236.61914062 C-189.93591255 238.53947442 -191.36400546 239.0889598 -194.54077148 239.24023438 C-196.54077148 238.57356771 -198.54077148 237.90690104 -200.54077148 237.24023438 C-206.43346734 236.57493 -209.90094803 237.26620525 -214.77514648 240.70117188 C-218.4005182 243.86134102 -220.17858522 246.897342 -220.91577148 251.66601562 C-221.12642417 256.00414431 -220.90502746 259.16686252 -218.54077148 262.86523438 C-216.21714632 266.78635184 -215.53743045 269.83059269 -216.54077148 274.24023438 C-217.65008244 276.41382891 -218.91684708 278.36679916 -220.29858398 280.37695312 C-222.92020289 284.30938149 -223.60325708 288.32576552 -224.08764648 292.93164062 C-224.21671387 294.14315796 -224.21671387 294.14315796 -224.34838867 295.37915039 C-224.44361816 296.30038696 -224.44361816 296.30038696 -224.54077148 297.24023438 C-223.43465515 297.23135193 -222.32853882 297.22246948 -221.18890381 297.21331787 C-210.7711768 297.13227518 -200.35351363 297.07228968 -189.93554306 297.03298569 C-184.57937241 297.01209984 -179.22345597 296.98376374 -173.86743164 296.93847656 C-168.69975532 296.89505477 -163.53232372 296.87110479 -158.36447906 296.8607254 C-156.39165646 296.85332746 -154.41884743 296.83888118 -152.44612885 296.81731415 C-149.68538845 296.78832894 -146.92566268 296.78427633 -144.16479492 296.78613281 C-143.3469603 296.77175171 -142.52912567 296.75737061 -141.68650818 296.74255371 C-138.11102929 296.76861604 -135.9721471 296.92894721 -133.03302002 299.04986572 C-130.84229237 302.26548367 -130.99831178 304.44301647 -131.54077148 308.24023438 C-133.75940178 311.1474051 -135.06022077 312.0800508 -138.54077148 313.24023438 C-140.20427116 313.33424698 -141.87129385 313.37083703 -143.53744507 313.37394714 C-144.56928421 313.37821213 -145.60112335 313.38247711 -146.66423035 313.38687134 C-148.36148003 313.38619156 -148.36148003 313.38619156 -150.09301758 313.38549805 C-151.28511337 313.38885666 -152.47720917 313.39221527 -153.70542908 313.39567566 C-156.9761539 313.40355518 -160.24684065 313.40685367 -163.51757383 313.40749145 C-165.56141781 313.40820215 -167.60525512 313.41033688 -169.64909744 313.41298866 C-176.78063632 313.42224148 -183.91215649 313.42632367 -191.04370117 313.42553711 C-197.68916578 313.42493646 -204.33454917 313.43548584 -210.97999322 313.45128077 C-216.68709488 313.46436159 -222.39417 313.46972077 -228.10128653 313.4690817 C-231.50912621 313.46882685 -234.91689374 313.47167065 -238.32471848 313.48225975 C-242.12645999 313.49203643 -245.92799156 313.48919062 -249.72973633 313.4831543 C-250.85718765 313.4887738 -251.98463898 313.49439331 -253.14625549 313.50018311 C-254.70247368 313.49389137 -254.70247368 313.49389137 -256.29013062 313.48747253 C-257.18866949 313.4880173 -258.08720837 313.48856207 -259.01297569 313.48912334 C-262.97809872 313.09871389 -265.71886652 312.06213934 -268.54077148 309.24023438 C-268.87670898 307.18164062 -268.87670898 307.18164062 -268.91577148 304.80273438 C-268.94413086 304.02027344 -268.97249023 303.2378125 -269.00170898 302.43164062 C-268.54077148 300.24023438 -268.54077148 300.24023438 -266.86450195 298.62158203 C-263.99025939 296.91298102 -262.22727679 296.89417312 -258.90014648 296.94726562 C-257.83022461 296.95693359 -256.76030273 296.96660156 -255.65795898 296.9765625 C-254.54678711 297.00169922 -253.43561523 297.02683594 -252.29077148 297.05273438 C-251.16413086 297.06626953 -250.03749023 297.07980469 -248.87670898 297.09375 C-246.09757884 297.12907793 -243.31941785 297.17840918 -240.54077148 297.24023438 C-240.56324951 296.44214355 -240.58572754 295.64405273 -240.60888672 294.82177734 C-240.78161145 284.34208227 -240.78161145 284.34208227 -238.60327148 279.36523438 C-235.6776301 272.61458618 -235.6776301 272.61458618 -236.50952148 265.55664062 C-239.11692955 257.17145334 -238.72295976 246.41266337 -234.93139648 238.48242188 C-229.79762041 230.204929 -223.22096599 224.26887527 -214.04077148 220.99023438 C-210.20026014 220.16726766 -206.44574574 219.6512843 -202.54077148 219.24023438 C-202.3822168 218.61117187 -202.22366211 217.98210937 -202.06030273 217.33398438 C-199.183642 206.78093062 -194.44439906 199.74839651 -185.54077148 193.24023438 C-179.17392898 189.70536342 -173.83758371 188.10398529 -166.55029297 188.50878906 C-159.49190828 188.95632776 -159.49190828 188.95632776 -152.92749023 186.82617188 C-150.96133859 185.02310738 -150.96133859 185.02310738 -149.22827148 183.05664062 C-144.21817328 177.66382659 -135.88633596 175.54182614 -128.81420898 174.90429688 C-115.163898 174.76752021 -104.27572708 177.3039045 -93.54077148 186.24023438 C-92.88206055 186.78679687 -92.22334961 187.33335937 -91.54467773 187.89648438 C-86.74062691 192.27695223 -84.12252781 197.32717955 -81.54077148 203.24023438 C-76.52864539 199.51326882 -72.91723234 195.13597107 -69.02905273 190.26757812 C-65.68638533 186.20075357 -62.11776516 182.38370914 -58.50952148 178.55273438 C-58.06600342 178.04524658 -57.62248535 177.53775879 -57.16552734 177.01489258 C-55.54077148 175.24023438 -55.54077148 175.24023438 -53.23046875 173.14331055 C-45.81424544 165.67277744 -45.39991754 159.2215289 -45.39428711 149.0546875 C-45.42130826 147.22068852 -45.44931492 145.38670382 -45.47827148 143.55273438 C-45.47519157 141.67577011 -45.46806342 139.79880791 -45.45678711 137.921875 C-45.43809274 133.36001258 -45.47422147 128.80161705 -45.54077148 124.24023438 C-46.39331009 124.24911682 -47.24584869 124.25799927 -48.1242218 124.26715088 C-56.19990245 124.34764865 -64.27544631 124.40837637 -72.35143757 124.44748306 C-76.50237097 124.4682649 -80.65296994 124.49640785 -84.80371094 124.54199219 C-88.81730067 124.58578918 -92.83057088 124.609442 -96.84438133 124.61974335 C-98.3676474 124.62707455 -99.89089806 124.64138896 -101.41402626 124.6631546 C-112.4950096 124.81505393 -122.35160817 124.25422212 -130.97827148 116.61523438 C-136.95793305 109.97253026 -139.25362161 102.7870654 -138.85327148 93.90429688 C-137.87898817 85.59853162 -134.78870303 79.81801676 -128.54077148 74.24023438 C-121.12588545 69.20828801 -114.31618363 68.50320488 -105.53295898 68.53320312 C-104.32632599 68.51808182 -103.11969299 68.50296051 -101.87649536 68.48738098 C-98.05606107 68.44469776 -94.23641989 68.43568402 -90.41577148 68.42773438 C-87.81158402 68.40457525 -85.2074152 68.37920699 -82.60327148 68.3515625 C-76.24909713 68.28890116 -69.89523027 68.25381371 -63.54077148 68.24023438 C-63.02691895 67.03077148 -62.51306641 65.82130859 -61.98364258 64.57519531 C-60.05287874 60.03352969 -58.11711477 55.49400895 -56.17993164 50.95507812 C-55.3465619 49.00057017 -54.51449969 47.04550411 -53.68383789 45.08984375 C-38.20826132 8.66357687 -38.20826132 8.66357687 -23.34936523 2.15039062 C-15.80000747 -0.29606328 -7.84837679 0.02152452 0 0 Z M-23.32592773 20.78710938 C-29.83674157 28.01779206 -29.82552798 35.22241392 -29.76782227 44.57958984 C-29.76811432 45.81916946 -29.76840637 47.05874908 -29.76870728 48.33589172 C-29.76755544 51.72188859 -29.75754814 55.1076394 -29.74355936 58.49359274 C-29.73102844 62.03699101 -29.72987964 65.58039281 -29.72750854 69.12380981 C-29.7213007 75.82788403 -29.70489934 82.53189276 -29.68480957 89.23593819 C-29.66242887 96.87074751 -29.65145168 104.50556 -29.6414187 112.14039397 C-29.62053246 127.84038512 -29.58386496 143.54028609 -29.54077148 159.24023438 C-18.98077148 159.24023438 -8.42077148 159.24023438 2.45922852 159.24023438 C1.79922852 156.27023437 1.13922852 153.30023438 0.45922852 150.24023438 C-1.26731891 136.4680072 6.47557308 125.23351201 13.02124023 113.77685547 C15.58834239 109.24846983 18.08247642 104.67994211 20.58422852 100.11523438 C21.52421193 98.40423053 22.46430519 96.69328703 23.40454102 94.98242188 C24.0894939 93.73505737 24.77441335 92.4876745 25.45922852 91.24023438 C21.82388926 86.36495263 18.15757319 81.51941767 14.39672852 76.74023438 C13.9362915 76.15346924 13.47585449 75.5667041 13.00146484 74.9621582 C9.83119064 70.93759633 6.60344889 66.96396387 3.35131836 63.00537109 C-7.18469185 50.1635712 -13.56372754 41.55179831 -12.54077148 24.24023438 C-12.06840757 21.43862772 -11.40861006 18.95222992 -10.54077148 16.24023438 C-15.39042616 16.24023438 -19.66116321 17.61151473 -23.32592773 20.78710938 Z M3.58422852 23.42773438 C1.946168 27.52288568 1.6264159 30.89668583 2.45922852 35.24023438 C3.95666242 38.63573143 6.14875508 41.35214258 8.45922852 44.24023438 C8.91555664 44.81161133 9.37188477 45.38298828 9.84204102 45.97167969 C12.564683 49.36974631 15.3143731 52.74454192 18.08032227 56.10742188 C21.64188496 60.44526151 25.1115239 64.85067744 28.55322266 69.28393555 C30.68520406 72.02077352 32.84360733 74.71660903 35.10766602 77.34570312 C35.92493164 78.30089844 36.74219727 79.25609375 37.58422852 80.24023438 C38.30868164 81.06523437 39.03313477 81.89023438 39.77954102 82.74023438 C41.80484526 85.7546407 42.3721986 87.60788036 42.45922852 91.24023438 C41.36938477 94.30664062 41.36938477 94.30664062 39.52172852 97.80273438 C39.18052979 98.45677246 38.83933105 99.11081055 38.48779297 99.78466797 C37.16950376 102.2837918 35.81716271 104.76241193 34.45922852 107.24023438 C33.51611816 108.96330811 33.51611816 108.96330811 32.55395508 110.72119141 C29.71905294 115.89209969 26.87617661 121.05847646 24.00830078 126.21118164 C23.66576263 126.82710678 23.32322449 127.44303192 22.9703064 128.07762146 C22.02864087 129.76939589 21.0851796 131.46017042 20.14160156 133.15087891 C15.96634408 140.37416553 15.96634408 140.37416553 15.89672852 148.34570312 C16.8260126 151.47558356 17.99843779 153.09492964 20.45922852 155.24023438 C24.53887169 157.13652907 27.40193003 157.58588965 31.70922852 156.17773438 C36.29376836 152.94771766 38.89451492 148.73610454 41.49047852 143.83789062 C42.04815918 142.79310547 42.60583984 141.74832031 43.18041992 140.671875 C44.06093018 139.00415039 44.06093018 139.00415039 44.95922852 137.30273438 C45.89046515 135.5526475 46.82171317 133.80256637 47.75405884 132.05307007 C48.38724919 130.86491263 49.01987587 129.67645462 49.65194702 128.48770142 C51.70337985 124.63533945 53.79062468 120.80471957 55.90454102 116.98632812 C56.44143555 116.01493896 56.97833008 115.0435498 57.53149414 114.04272461 C58.53370593 112.23385839 59.53993045 110.4272069 60.55102539 108.62329102 C66.34489156 98.12956972 70.68766021 89.22310588 67.27172852 77.24023438 C64.15184359 69.30173714 58.34482544 62.91408824 53.08276367 56.31103516 C50.79747931 53.39618072 48.65055753 50.39527064 46.52172852 47.36523438 C45.72665693 46.2450867 44.93106792 45.12530614 44.13500977 44.00585938 C43.71687012 43.41740234 43.29873047 42.82894531 42.86791992 42.22265625 C42.17061768 41.24135742 42.17061768 41.24135742 41.45922852 40.24023438 C40.90025879 39.45197266 40.34128906 38.66371094 39.76538086 37.8515625 C37.92395193 35.26499263 36.06785463 32.6894669 34.20922852 30.11523438 C33.63052002 29.29684082 33.05181152 28.47844727 32.45556641 27.63525391 C28.71752768 22.48759707 25.43093377 18.06363668 18.89672852 16.70898438 C12.09395855 16.79619937 8.15907627 18.09041199 3.58422852 23.42773438 Z M-46.54077148 69.24023438 C-47.35458944 71.17718116 -48.16678064 73.11481149 -48.97827148 75.05273438 C-49.43073242 76.13167969 -49.88319336 77.210625 -50.34936523 78.32226562 C-51.14452161 80.26974698 -51.87556796 82.2446238 -52.54077148 84.24023438 C-53.31893723 84.24388 -54.09710297 84.24752563 -54.89884949 84.25128174 C-62.24092722 84.28918601 -69.58249889 84.3460655 -76.9242506 84.42413712 C-80.69854124 84.46360663 -84.47259878 84.49579735 -88.24707031 84.51123047 C-91.89132864 84.52640105 -95.5349461 84.56085222 -99.17891884 84.6085434 C-100.56748184 84.62335333 -101.95613634 84.63127518 -103.34477806 84.63211823 C-105.29327477 84.6344904 -107.24168146 84.66386873 -109.18994141 84.69433594 C-110.29802658 84.70321838 -111.40611176 84.71210083 -112.54777527 84.72125244 C-116.21310783 85.35681669 -117.87852464 86.69486739 -120.54077148 89.24023438 C-122.97302648 92.89585573 -122.78906456 95.81706894 -122.22436523 100.04882812 C-121.0469998 103.82312532 -118.79500985 105.11501748 -115.54077148 107.24023438 C-112.88110425 108.57006799 -110.80353879 108.40918185 -107.82519531 108.46142578 C-106.02741386 108.49618515 -106.02741386 108.49618515 -104.1933136 108.53164673 C-102.89129501 108.55149628 -101.58927643 108.57134583 -100.24780273 108.59179688 C-98.89979102 108.61492183 -97.55178383 108.63831225 -96.20378113 108.66195679 C-93.37336342 108.71045148 -90.54291637 108.75536265 -87.71240234 108.79785156 C-84.09888862 108.85242688 -80.48561162 108.91632102 -76.87230396 108.9830265 C-74.08497552 109.03334414 -71.29757998 109.07836716 -68.51013756 109.12186813 C-66.53435983 109.15370776 -64.55865829 109.19016791 -62.58296204 109.22671509 C-61.36868027 109.24358368 -60.1543985 109.26045227 -58.90332031 109.27783203 C-57.84123856 109.29480133 -56.7791568 109.31177063 -55.68489075 109.32925415 C-52.28545051 109.23300545 -48.90739421 108.72118048 -45.54077148 108.24023438 C-45.54077148 95.37023437 -45.54077148 82.50023437 -45.54077148 69.24023438 C-45.87077148 69.24023438 -46.20077148 69.24023438 -46.54077148 69.24023438 Z M-25.54077148 174.24023438 C-23.85762915 181.8520095 -23.85762915 181.8520095 -21.66479492 189.22460938 C-21.30391785 190.3102417 -20.94304077 191.39587402 -20.57122803 192.5144043 C-19.99154266 194.23494019 -19.99154266 194.23494019 -19.40014648 195.99023438 C-18.99548157 197.20235596 -18.59081665 198.41447754 -18.17388916 199.66333008 C-17.31927053 202.22260752 -16.46174069 204.78088267 -15.60180664 207.33837891 C-14.5175835 210.56301764 -13.43845233 213.7893287 -12.36122894 217.01631165 C-7.87078459 230.46596576 -3.33502473 243.89550529 1.45922852 257.24023438 C9.93617308 255.84761115 17.93868387 253.29965691 26.08422852 250.61523438 C27.38744511 250.19023718 28.69082959 249.76575443 29.99438477 249.34179688 C33.15101437 248.31296945 36.3058625 247.27901277 39.45922852 246.24023438 C39.00246945 230.58045409 38.39571316 214.93283799 37.590271 199.28717041 C37.50313869 197.5936707 37.41723532 195.9001073 37.33258057 194.20648193 C37.21214485 191.81125413 37.08652571 189.41635622 36.95922852 187.02148438 C36.92380951 186.30803864 36.8883905 185.5945929 36.85189819 184.85952759 C36.64944255 181.18255386 36.18683764 177.87828001 35.45922852 174.24023438 C15.32922852 174.24023438 -4.80077148 174.24023438 -25.54077148 174.24023438 Z M-41.54077148 183.24023438 C-43.46811941 185.3269418 -45.29402355 187.42963151 -47.10327148 189.61523438 C-48.19336651 190.91169156 -49.28451949 192.20725991 -50.37670898 193.50195312 C-51.18446777 194.46174072 -51.18446777 194.46174072 -52.00854492 195.44091797 C-54.03154667 197.81655896 -56.1227967 200.12510383 -58.22827148 202.42773438 C-62.03107809 206.61286983 -65.58442084 210.96219936 -69.13061523 215.36523438 C-72.24476359 219.08000453 -75.53732818 222.61345059 -78.91137695 226.09326172 C-81.62808013 228.96390812 -83.33969418 231.46541999 -84.54077148 235.24023438 C-80.42765761 239.46902958 -76.21115119 243.49534878 -71.72436523 247.32617188 C-70.09865097 248.75121658 -68.5133931 250.22267464 -66.95092773 251.71679688 C-66.07307617 252.54953125 -65.19522461 253.38226563 -64.29077148 254.24023438 C-63.48124023 255.02398437 -62.67170898 255.80773437 -61.83764648 256.61523438 C-59.74781318 258.47821072 -59.74781318 258.47821072 -57.65283203 258.01733398 C-55.23373658 257.12726569 -53.515399 255.97524913 -51.45092773 254.43164062 C-50.67209229 253.85365723 -49.89325684 253.27567383 -49.09082031 252.68017578 C-48.2699292 252.06062012 -47.44903809 251.44106445 -46.60327148 250.80273438 C-45.7623999 250.17544434 -44.92152832 249.5481543 -44.05517578 248.90185547 C-37.16524535 243.74902026 -30.32746768 238.52825259 -23.54077148 233.24023438 C-26.16801297 222.65663954 -29.7530711 212.37917772 -33.22827148 202.05273438 C-33.84118228 200.22405235 -34.45381479 198.39527703 -35.06616211 196.56640625 C-36.55449167 192.1232666 -38.04658378 187.68140724 -39.54077148 183.24023438 C-40.20077148 183.24023438 -40.86077148 183.24023438 -41.54077148 183.24023438 Z M61.45922852 201.24023438 C55.9665297 206.8774779 54.10476232 212.68786238 54.19628906 220.35992432 C54.23363159 221.66966217 54.23363159 221.66966217 54.27172852 223.00585938 C54.28876831 224.37868073 54.28876831 224.37868073 54.30615234 225.77923584 C54.34260173 228.6833471 54.39851393 231.58653538 54.45922852 234.49023438 C54.53890777 238.32875067 54.59887745 242.16682957 54.64672852 246.00585938 C54.67162354 246.88711487 54.69651855 247.76837036 54.72216797 248.67633057 C54.73703247 249.90340729 54.73703247 249.90340729 54.75219727 251.15527344 C54.76790771 251.87362366 54.78361816 252.59197388 54.79980469 253.33209229 C54.34629835 255.87294689 53.48658962 256.6771966 51.45922852 258.24023438 C49.55540466 259.08106995 49.55540466 259.08106995 47.38671875 259.74243164 C46.16546547 260.12281334 46.16546547 260.12281334 44.91954041 260.51087952 C43.60693993 260.90478127 43.60693993 260.90478127 42.26782227 261.30664062 C41.36677261 261.58620102 40.46572296 261.86576141 39.53736877 262.15379333 C36.65981493 263.04568625 33.77869012 263.92519785 30.89672852 264.80273438 C28.01156318 265.68491947 25.12735234 266.56983449 22.24537659 267.46238708 C20.45218683 268.01742894 18.65708345 268.56633237 16.85997009 269.10853577 C15.64344505 269.48418922 15.64344505 269.48418922 14.40234375 269.86743164 C13.33003761 270.19361229 13.33003761 270.19361229 12.23606873 270.52638245 C10.24747557 271.19030051 10.24747557 271.19030051 8.45922852 273.24023438 C13.03545859 277.46930064 17.55480377 280.65358496 23.13110352 283.41210938 C23.84665405 283.77607819 24.56220459 284.140047 25.29943848 284.51504517 C27.5983782 285.68222168 29.90369348 286.83614975 32.20922852 287.99023438 C33.80580577 288.79855924 35.40183226 289.60797286 36.99731445 290.41845703 C40.10923566 291.99880236 43.22295515 293.57550252 46.33813477 295.14941406 C51.15524852 297.5877433 55.94029964 300.08405014 60.70922852 302.61523438 C62.12838463 303.36675313 63.54765522 304.11805576 64.96704102 304.86914062 C65.67376953 305.24312988 66.38049805 305.61711914 67.10864258 306.00244141 C69.86431515 307.45354859 72.62617012 308.89248396 75.38891602 310.33007812 C76.41726563 310.8652002 77.44561523 311.40032227 78.50512695 311.95166016 C80.48964107 312.98356973 82.47463121 314.01456463 84.46020508 315.04443359 C89.59302116 317.71447979 94.6680454 320.45054457 99.67749023 323.34643555 C101.42494871 324.38969737 101.42494871 324.38969737 103.45922852 324.24023438 C105.04548993 321.40853114 106.62768444 318.5745746 108.20922852 315.74023438 C108.65266602 314.94875 109.09610352 314.15726562 109.55297852 313.34179688 C112.32500114 308.36846217 114.95045229 303.35157285 117.45922852 298.24023438 C116.62375488 297.79744141 115.78828125 297.35464844 114.92749023 296.8984375 C111.75409138 295.21579329 108.58228334 293.53016813 105.41088867 291.84375 C104.05192931 291.12161312 102.69256972 290.40022879 101.33276367 289.6796875 C97.3608017 287.57463585 93.3967331 285.45584853 89.44396973 283.31494141 C88.10654337 282.59074547 86.76772428 281.86911644 85.4276123 281.14990234 C83.47569682 280.09806109 81.53297675 279.03092326 79.59204102 277.95898438 C78.45911621 277.33958984 77.32619141 276.72019531 76.15893555 276.08203125 C73.46376871 274.24333179 72.44864845 273.29801312 71.45922852 270.24023438 C71.48936123 267.48811318 72.0044031 264.96918684 72.45922852 262.24023438 C81.53790589 259.94392003 87.11107571 263.56779353 94.89672852 268.05273438 C96.15077192 268.75306662 97.40599359 269.45129297 98.66235352 270.14746094 C101.14591141 271.52823285 103.62204193 272.92092068 106.09155273 274.32666016 C109.56690339 276.30141718 113.06028879 278.24013115 116.56298828 280.16577148 C117.35374756 280.60284424 118.14450684 281.03991699 118.95922852 281.49023438 C119.569086 281.82164932 120.17894348 282.15306427 120.80728149 282.49452209 C124.56762494 284.55944823 128.20640225 286.70611775 131.77661133 289.08618164 C145.42557532 297.85591332 156.78943762 298.62852251 172.70922852 297.92773438 C174.93045869 297.87238218 177.15182457 297.82222351 179.37329102 297.77734375 C184.73830527 297.65790604 190.09810104 297.47536899 195.45922852 297.24023438 C195.33427182 295.80983886 195.19955463 294.38029404 195.06079102 292.95117188 C194.98683105 292.15501465 194.91287109 291.35885742 194.83666992 290.53857422 C194.24773709 286.95240755 192.8774683 284.91302572 190.45922852 282.24023438 C186.92185833 280.37143503 183.42375136 279.21054237 179.58422852 278.17773438 C178.03735352 277.71367187 178.03735352 277.71367187 176.45922852 277.24023438 C174.85177793 274.0253332 175.05617609 271.81012728 175.45922852 268.24023438 C176.82331243 266.06189729 178.36734666 264.13694347 179.98657227 262.14257812 C182.916087 258.35829782 183.67858168 254.91020109 183.27172852 250.24023438 C182.09211657 243.12188644 178.61513931 238.29254206 172.82641602 234.04101562 C168.58112677 231.32821868 165.4206597 230.77217483 160.45922852 231.24023438 C159.79922852 231.40523437 159.13922852 231.57023437 158.45922852 231.74023438 C154.35252066 232.76691134 150.4430427 232.56817244 146.45922852 231.24023438 C145.65063477 228.69335938 145.65063477 228.69335938 145.02172852 225.49023438 C143.72377122 219.90107133 142.61030377 216.48780227 137.81079102 213.06445312 C132.27573427 209.77730718 126.77536183 209.38512709 120.45922852 210.24023438 C118.44396683 211.20911019 116.44088885 212.20436647 114.45922852 213.24023438 C110.77172852 213.24023438 110.77172852 213.24023438 107.45922852 212.24023438 C105.77172852 210.05273438 105.77172852 210.05273438 104.45922852 207.24023438 C99.7726298 199.48310547 95.38269693 196.13298793 86.82641602 193.72070312 C77.28991346 191.78507637 68.72238697 195.25705876 61.45922852 201.24023438 Z M-95.54077148 248.24023438 C-96.3502687 251.08431507 -96.66469937 253.60221248 -96.661026 256.55560303 C-96.66240067 257.41093124 -96.66377533 258.26625946 -96.66519165 259.14750671 C-96.66159637 260.0775502 -96.6580011 261.00759369 -96.65429688 261.96582031 C-96.6544429 262.95151505 -96.65458893 263.93720978 -96.65473938 264.95277405 C-96.65404284 268.21007489 -96.64626251 271.46731852 -96.63842773 274.72460938 C-96.63656264 276.98333708 -96.63513917 279.2420652 -96.63414001 281.50079346 C-96.63032208 287.44542559 -96.62049793 293.39003328 -96.60943604 299.33465576 C-96.59920639 305.40083485 -96.59463906 311.46701789 -96.58959961 317.53320312 C-96.57887504 329.43555934 -96.56128406 341.337891 -96.54077148 353.24023438 C-86.64077148 353.24023438 -76.74077148 353.24023438 -66.54077148 353.24023438 C-66.3824274 342.93046827 -66.25408991 332.62151374 -66.17808628 322.31080532 C-66.1416023 317.52274221 -66.09214201 312.73555631 -66.01269531 307.94799805 C-65.93646043 303.32488999 -65.89474483 298.70262388 -65.87663078 294.07893562 C-65.86372776 292.31782848 -65.83852971 290.55676583 -65.80066109 288.7960186 C-65.2989804 279.40273899 -65.2989804 279.40273899 -68.01608276 270.67532349 C-69.76861958 268.89273969 -71.44908148 267.59490948 -73.54077148 266.24023438 C-74.78245427 265.17126961 -76.0130435 264.08918057 -77.22827148 262.99023438 C-77.8844043 262.42691406 -78.54053711 261.86359375 -79.21655273 261.28320312 C-81.05646965 259.66593162 -82.85700541 258.02567238 -84.64624023 256.35351562 C-85.18611572 255.85045898 -85.72599121 255.34740234 -86.28222656 254.82910156 C-87.3600219 253.82202094 -88.43417183 252.81102284 -89.50439453 251.79589844 C-92.08900421 249.0749534 -92.08900421 249.0749534 -95.54077148 248.24023438 Z M-22.33764648 251.95117188 C-23.1261499 252.53044434 -23.91465332 253.1097168 -24.72705078 253.70654297 C-26.45101971 254.99003874 -28.16856265 256.28220667 -29.87988281 257.58251953 C-34.2407131 260.88413323 -38.45864622 263.97998954 -43.38818359 266.37695312 C-46.04429312 268.06643217 -46.04429312 268.06643217 -50.54077148 273.24023438 C-50.54077148 281.16023438 -50.54077148 289.08023438 -50.54077148 297.24023438 C-29.09077148 297.24023438 -7.64077148 297.24023438 14.45922852 297.24023438 C11.25350528 294.67565579 8.44285025 292.54382928 5.02172852 290.42773438 C-5.96341507 283.14688339 -9.71911195 272.28933055 -13.79077148 260.24023438 C-14.15428711 259.17933594 -14.51780273 258.1184375 -14.89233398 257.02539062 C-15.78016054 254.43200253 -16.66283508 251.83698368 -17.54077148 249.24023438 C-19.415417 249.24023438 -20.888482 250.88095368 -22.33764648 251.95117188 Z M130.45922852 307.24023438 C128.47794996 310.86667153 126.50263213 314.49628439 124.53271484 318.12890625 C123.86213489 319.3635118 123.18994976 320.59724693 122.51611328 321.83007812 C121.54628885 323.60510734 120.58275949 325.38357141 119.61938477 327.16210938 C119.03809814 328.23041992 118.45681152 329.29873047 117.85791016 330.39941406 C115.54903608 334.89690107 115.54903608 334.89690107 116.23193359 339.69799805 C116.64338623 340.59236572 117.05483887 341.4867334 117.47875977 342.40820312 C118.14681641 343.8709668 118.14681641 343.8709668 118.82836914 345.36328125 C119.54283203 346.88018555 119.54283203 346.88018555 120.27172852 348.42773438 C120.96878906 349.96204102 120.96878906 349.96204102 121.67993164 351.52734375 C123.64380745 356.7066896 123.64380745 356.7066896 127.45922852 360.24023438 C128.15483887 358.93203735 128.15483887 358.93203735 128.86450195 357.59741211 C130.6004003 354.3334899 132.33771543 351.07032356 134.07543945 347.80737305 C134.82451865 346.4003494 135.57322358 344.99312644 136.3215332 343.58569336 C137.40288341 341.55203407 138.48561858 339.51911725 139.56860352 337.48632812 C140.06260651 336.55620155 140.06260651 336.55620155 140.56658936 335.60728455 C140.88661926 335.0071907 141.20664917 334.40709686 141.53637695 333.78881836 C141.84796753 333.20381561 142.15955811 332.61881287 142.48059082 332.01608276 C143.15947223 330.78417594 143.86511504 329.56678796 144.59118652 328.36209106 C146.56206253 325.09102796 147.45922852 323.46153789 147.45922852 319.55273438 C145.5642675 313.27567601 141.02531554 311.24182104 135.58032227 308.19335938 C133.39072452 307.03529653 133.39072452 307.03529653 130.45922852 307.24023438 Z M-111.11157227 380.48583984 C-112.36088395 382.703714 -113.47413911 384.93026848 -114.54077148 387.24023438 C-115.20491489 388.57482635 -115.87123468 389.90833997 -116.54077148 391.24023438 C-110.52685002 391.36411094 -104.51367601 391.45470509 -98.4987793 391.51489258 C-96.45405129 391.53999021 -94.4094126 391.57407601 -92.36499023 391.61743164 C-89.42075537 391.67829253 -86.47770953 391.70649168 -83.53295898 391.72851562 C-82.62335419 391.75432205 -81.71374939 391.78012848 -80.77658081 391.80671692 C-76.47336375 391.80860564 -73.45365017 391.65395979 -69.97875977 388.9597168 C-66.00294998 384.52485347 -66.41984216 381.33316634 -66.47827148 375.49023438 C-66.48729492 374.31976563 -66.49631836 373.14929688 -66.50561523 371.94335938 C-66.5172168 371.05132812 -66.52881836 370.15929687 -66.54077148 369.24023438 C-92.24293641 365.80061898 -92.24293641 365.80061898 -111.11157227 380.48583984 Z " fill="#000000" transform="translate(268.540771484375,102.759765625)"/>
<path d="M0 0 C1.42128269 1.0497225 2.81801547 2.13354404 4.1875 3.25 C5.21810547 4.07757812 5.21810547 4.07757812 6.26953125 4.921875 C15.6391637 13.30617326 20.08204096 24.93202786 21.1875 37.25 C22.38375 37.105625 23.58 36.96125 24.8125 36.8125 C35.25197049 36.89367784 45.16411698 44.69118523 53.625 50.1875 C54.36999756 50.66477539 55.11499512 51.14205078 55.88256836 51.63378906 C62.12022205 55.80762129 67.68525 60.65766304 70.625 67.6875 C72.07202483 76.8519906 71.20553433 83.58576513 66.125 91.4375 C60.88138852 97.11678247 54.29971706 99.55183984 46.6875 99.875 C36.13766255 100.01095151 26.75112144 92.24584068 18.3125 86.6875 C17.29414063 86.02814453 16.27578125 85.36878906 15.2265625 84.68945312 C10.81337805 81.80055936 6.82478839 79.09991201 3.1875 75.25 C2.69121094 75.57613281 2.19492187 75.90226562 1.68359375 76.23828125 C-10.03101408 83.7738639 -21.9730506 86.0709128 -35.765625 83.75390625 C-48.97739168 80.07704666 -59.00270488 72.06600589 -65.8125 60.25 C-71.04840171 49.82439571 -71.46845646 37.22277911 -69.1171875 25.90234375 C-65.36042291 14.67940416 -57.58003666 4.08393394 -47.0625 -1.5625 C-31.55156249 -8.58274083 -14.78362344 -9.29691783 0 0 Z M-49.296875 22.25 C-51.63879705 25.34037136 -52.8125 27.32919931 -52.8125 31.25 C-51.73935547 31.26401855 -51.73935547 31.26401855 -50.64453125 31.27832031 C-47.36651808 31.33238845 -44.08987639 31.41596471 -40.8125 31.5 C-39.12447266 31.52126953 -39.12447266 31.52126953 -37.40234375 31.54296875 C-29.76544764 31.76626981 -23.92960647 32.47812433 -18.16748047 37.75708008 C-14.20782446 42.05907485 -11.55328645 46.99596464 -8.9375 52.1875 C-8.5353125 52.96673828 -8.133125 53.74597656 -7.71875 54.54882812 C-6.74162082 56.44492403 -5.77584285 58.34686268 -4.8125 60.25 C1.55456263 54.12539174 4.67317038 48.66830599 5.21875 39.76171875 C5.11284422 31.24954152 2.22445508 24.40348574 -3.70703125 18.30078125 C-10.64136267 11.97635279 -17.14027687 8.88796644 -26.6328125 9.03125 C-36.31455317 10.00289422 -43.09376016 15.09685857 -49.296875 22.25 Z M-52.8125 47.25 C-49.9908153 56.44660198 -45.49130618 61.36974787 -37.1796875 66.12109375 C-32.86787988 68.17738484 -29.33262207 68.36434915 -24.5625 68.3125 C-22.94601562 68.29896484 -22.94601562 68.29896484 -21.296875 68.28515625 C-20.06710937 68.26775391 -20.06710937 68.26775391 -18.8125 68.25 C-20.38908842 63.93901603 -22.52570582 60.02710513 -24.8125 56.0625 C-25.34617187 55.11987305 -25.34617187 55.11987305 -25.890625 54.15820312 C-27.36692771 51.58293627 -28.70388726 49.35861274 -30.8125 47.25 C-33.14067205 46.97234584 -33.14067205 46.97234584 -35.8203125 47.0546875 C-36.80644531 47.06113281 -37.79257812 47.06757812 -38.80859375 47.07421875 C-39.84113281 47.09097656 -40.87367188 47.10773437 -41.9375 47.125 C-42.97777344 47.13402344 -44.01804688 47.14304688 -45.08984375 47.15234375 C-47.66429092 47.17596253 -50.23828212 47.20889851 -52.8125 47.25 Z M18.25 55.3125 C15.90080677 58.12348606 15.90080677 58.12348606 15.9375 61.6875 C18.67886365 69.50038639 27.46242949 73.54338745 34.25 77.625 C35.55807617 78.44291016 35.55807617 78.44291016 36.89257812 79.27734375 C43.07314271 83.10106536 43.07314271 83.10106536 50.1875 83.25 C53.08279638 81.21546741 54.02500443 79.68969389 55.25 76.375 C55.1785569 72.80284495 54.2457336 71.50398176 51.93237305 68.86865234 C48.41438792 65.60515138 44.20991477 63.36825119 40.0625 61 C38.26804213 59.95344563 36.47376352 58.90658382 34.6796875 57.859375 C33.88933105 57.40530273 33.09897461 56.95123047 32.28466797 56.48339844 C30.55030925 55.46337745 28.86164701 54.36609801 27.1875 53.25 C23.13269599 52.63296461 21.64380023 52.92961899 18.25 55.3125 Z " fill="#000000" transform="translate(296.8125,8.75)"/>
</svg>
