<?xml version="1.0" encoding="UTF-8"?>
<svg version="1.1" xmlns="http://www.w3.org/2000/svg" width="512" height="512">
<path d="M0 0 C6.30773489 4.35534076 9.47860618 9.57493211 13.125 16.1875 C13.64199463 17.10869629 14.15898926 18.02989258 14.69165039 18.97900391 C15.78741152 20.93210961 16.87987027 22.88707126 17.96923828 24.84375 C20.11109684 28.6840626 22.27858108 32.50958161 24.4465332 36.33520508 C27.70747005 42.0909877 30.95618854 47.85368388 34.20605469 53.61572266 C35.78262021 56.41081125 37.35983336 59.20553278 38.9375 62 C39.72797729 63.40028442 39.72797729 63.40028442 40.53442383 64.82885742 C43.88491403 70.75618555 47.25585722 76.67152845 50.64369202 82.57757568 C52.36421021 85.57751601 54.08100498 88.57944224 55.78833008 91.58691406 C58.8345285 96.9505898 61.9004703 102.29554313 65.0859375 107.578125 C75.0804872 124.40370518 75.0804872 124.40370518 72.625 134.8125 C69.67386008 144.4611371 58.0573244 149.58494253 49.875 154.1875 C48.96234375 154.73277344 48.0496875 155.27804688 47.109375 155.83984375 C39.68395704 160.00099791 32.56456435 161.47893608 24.20678711 159.1340332 C19.08796539 157.14845407 16.6683381 153.55375929 13.94921875 148.93359375 C12.67893678 146.89889431 11.34081218 145.46801491 9.625 143.8125 C5.26920885 146.28882176 0.91534325 148.76850183 -3.4375 151.25 C-4.07693542 151.61432129 -4.71637085 151.97864258 -5.37518311 152.35400391 C-13.95635617 157.24593033 -22.48301695 162.20730033 -30.8828125 167.40625 C-33.375 168.8125 -33.375 168.8125 -35.375 168.8125 C-34.93929688 169.73546875 -34.50359375 170.6584375 -34.0546875 171.609375 C-15.21259429 212.48713655 -12.84501929 258.76222949 -28.23486328 301.18261719 C-29.84604856 305.43716757 -31.56647528 309.63750145 -33.375 313.8125 C-32.61316406 313.95945312 -31.85132813 314.10640625 -31.06640625 314.2578125 C-21.59205913 316.31591038 -14.56733809 319.22190917 -8.9375 327.375 C-3.5266256 336.02314968 -3.11268106 344.83229085 -4.375 354.8125 C-8.13655968 367.56308096 -17.65267288 373.74621416 -28.6875 380 C-30.65890313 381.14089783 -32.62893395 382.28416988 -34.59765625 383.4296875 C-35.57492676 383.9978418 -36.55219727 384.56599609 -37.55908203 385.15136719 C-41.63670677 387.55679104 -45.63555418 390.07676532 -49.625 392.625 C-60.34435845 399.45728128 -71.17811745 406.09967786 -82.01220703 412.74804688 C-87.46932533 416.09822782 -92.92192303 419.45574674 -98.375 422.8125 C-99.44258545 423.46927734 -100.5101709 424.12605469 -101.61010742 424.80273438 C-107.10421332 428.18270402 -112.59655766 431.5654845 -118.0859375 434.953125 C-128.20144632 441.19325951 -138.32337104 447.42238959 -148.5 453.5625 C-149.28681152 454.03977539 -150.07362305 454.51705078 -150.88427734 455.00878906 C-170.20775979 466.61546712 -187.65072773 467.62459648 -209.41461182 462.31489944 C-214.46035864 461.03551409 -219.47991545 459.66111043 -224.5 458.28515625 C-226.1016047 457.85017738 -227.70333274 457.41565246 -229.30517578 456.98155212 C-233.48272286 455.84820248 -237.6586542 454.70901362 -241.83422852 453.56842041 C-246.05001822 452.4178586 -250.2672289 451.27253146 -254.484375 450.12695312 C-259.98039588 448.63378209 -265.47602674 447.13922196 -270.9703064 445.63965511 C-272.38450913 445.25448356 -273.79907261 444.87063372 -275.21401978 444.48820591 C-278.69414902 443.54756146 -282.16774147 442.58974159 -285.63378906 441.59835815 C-286.31732452 441.40657958 -287.00085999 441.21480101 -287.70510864 441.01721096 C-289.57352165 440.49291594 -291.43944435 439.95976913 -293.30517578 439.42601013 C-297.81209402 438.52529406 -300.28349952 439.58487471 -304.125 441.875 C-305.1975 442.514375 -306.27 443.15375 -307.375 443.8125 C-306.5058297 446.13028746 -305.65595796 448.35781995 -304.3515625 450.46875 C-300.65799863 456.65088526 -300.3854388 462.75304108 -301.375 469.8125 C-303.75947916 476.8627629 -309.16662107 480.27750862 -315.375 483.8125 C-316.07544434 484.2132373 -316.77588867 484.61397461 -317.49755859 485.02685547 C-321.4700192 487.29154465 -325.45602344 489.53146577 -329.4609375 491.73828125 C-330.1420459 492.11380127 -330.8231543 492.48932129 -331.52490234 492.8762207 C-336.63143112 495.46048276 -341.78196015 495.25384461 -347.375 494.8125 C-355.96151387 491.7913192 -359.7032583 485.00276216 -363.875 477.4375 C-364.65049194 476.05570557 -364.65049194 476.05570557 -365.44165039 474.64599609 C-366.53741152 472.69289039 -367.62987027 470.73792874 -368.71923828 468.78125 C-370.86132799 464.94052295 -373.029038 461.11458706 -375.19726562 457.28857422 C-376.83096131 454.40491367 -378.46095874 451.51919287 -380.08984375 448.6328125 C-383.34898972 442.85791947 -386.61168488 437.08503786 -389.875 431.3125 C-390.95834943 429.39584243 -392.04168275 427.47917576 -393.125 425.5625 C-393.66125 424.61375 -394.1975 423.665 -394.75 422.6875 C-396.375 419.8125 -398 416.9375 -399.625 414.0625 C-400.1622168 413.11205811 -400.69943359 412.16161621 -401.25292969 411.18237305 C-402.32656187 409.28283266 -403.40013052 407.38325637 -404.47363281 405.48364258 C-407.32984964 400.42963383 -410.18745377 395.37641533 -413.046875 390.32421875 C-413.64564453 389.26589844 -414.24441406 388.20757812 -414.86132812 387.1171875 C-416.01587374 385.07659525 -417.17080663 383.03622205 -418.32617188 380.99609375 C-418.84244141 380.0834375 -419.35871094 379.17078125 -419.890625 378.23046875 C-420.57560059 377.02040161 -420.57560059 377.02040161 -421.27441406 375.78588867 C-424.4581446 370.07734964 -424.51564572 362.91010628 -422.76171875 356.609375 C-418.58676687 348.44338983 -408.26852499 343.73698281 -400.625 339.4375 C-399.71234375 338.89222656 -398.7996875 338.34695313 -397.859375 337.78515625 C-390.43395704 333.62400209 -383.31456435 332.14606392 -374.95678711 334.4909668 C-369.83796539 336.47654593 -367.4183381 340.07124071 -364.69921875 344.69140625 C-363.42893678 346.72610569 -362.09081218 348.15698509 -360.375 349.8125 C-356.49561857 347.6099236 -352.61792004 345.40442079 -348.74169922 343.19628906 C-347.42509157 342.44680072 -346.1080415 341.69808897 -344.79052734 340.95019531 C-342.88780405 339.86992092 -340.98673313 338.7867868 -339.0859375 337.703125 C-337.94431152 337.05375977 -336.80268555 336.40439453 -335.62646484 335.73535156 C-332.45597905 333.8603894 -329.41834078 331.88439028 -326.375 329.8125 C-326.66632813 329.30203125 -326.95765625 328.7915625 -327.2578125 328.265625 C-340.46764337 304.83686836 -349.55940914 278.93976125 -350.375 251.8125 C-350.41496094 250.54792969 -350.45492187 249.28335938 -350.49609375 247.98046875 C-351.02281737 222.62631489 -345.581633 199.32406276 -336.375 175.8125 C-336.045 174.8225 -335.715 173.8325 -335.375 172.8125 C-336.13296875 172.26722656 -336.8909375 171.72195312 -337.671875 171.16015625 C-343.39658081 166.1882658 -346.48366435 158.6471305 -347.375 151.1875 C-347.71524003 142.07953614 -345.68679534 134.25817033 -340.375 126.8125 C-335.02108538 121.24467953 -328.73529743 117.4065082 -322.0625 113.625 C-320.09498326 112.48674138 -318.1288597 111.34607154 -316.1640625 110.203125 C-315.18727539 109.63529297 -314.21048828 109.06746094 -313.20410156 108.48242188 C-309.05795205 106.03509165 -304.99378328 103.46775648 -300.9375 100.875 C-294.00902326 96.45565248 -287.02697389 92.13606229 -280 87.875 C-271.80780687 82.90655512 -263.64183324 77.89919609 -255.50048828 72.84790039 C-247.36710522 67.80271107 -239.21587832 62.78678357 -231.06103516 57.77636719 C-225.84578186 54.57044048 -220.63570315 51.35697879 -215.44140625 48.1171875 C-176.0813345 23.56941936 -176.0813345 23.56941936 -152.65504456 28.75527954 C-150.9639286 29.16218234 -149.27501238 29.57831058 -147.58813477 30.00244141 C-146.21826715 30.33811347 -146.21826715 30.33811347 -144.82072544 30.68056679 C-136.21036308 32.80962282 -127.64429538 35.1000308 -119.09086418 37.44602585 C-116.43859267 38.17275554 -113.78489045 38.89404013 -111.13075256 39.61392212 C-103.60413304 41.65579047 -96.07898848 43.70295175 -88.55737305 45.76318359 C-83.91237624 47.03508021 -79.26491932 48.29760515 -74.61572456 49.5540657 C-72.85687582 50.03136599 -71.09898926 50.51222699 -69.3421154 50.99674606 C-66.90478132 51.668635 -64.46450465 52.32857421 -62.02319336 52.98583984 C-61.30380585 53.18729614 -60.58441833 53.38875244 -59.8432312 53.59631348 C-55.25344369 54.81437742 -52.63812629 54.9578627 -48.453125 52.83984375 C-47.54820312 52.30037109 -47.54820312 52.30037109 -46.625 51.75 C-45.5525 51.110625 -44.48 50.47125 -43.375 49.8125 C-44.2441703 47.49471254 -45.09404204 45.26718005 -46.3984375 43.15625 C-50.09200137 36.97411474 -50.3645612 30.87195892 -49.375 23.8125 C-46.99052084 16.7622371 -41.58337893 13.34749138 -35.375 9.8125 C-34.3243335 9.21139404 -34.3243335 9.21139404 -33.25244141 8.59814453 C-29.2799808 6.33345535 -25.29397656 4.09353423 -21.2890625 1.88671875 C-20.6079541 1.51119873 -19.9268457 1.13567871 -19.22509766 0.7487793 C-13.29386444 -2.2528411 -6.18638928 -2.17669252 0 0 Z M-21 21.5 C-22.46953125 22.29567383 -22.46953125 22.29567383 -23.96875 23.10742188 C-24.89945312 23.63271484 -25.83015625 24.15800781 -26.7890625 24.69921875 C-27.6445166 25.17576904 -28.4999707 25.65231934 -29.38134766 26.14331055 C-31.54560717 27.68429612 -31.54560717 27.68429612 -32.31396484 30.20776367 C-32.38980242 33.44420807 -31.62643219 34.85375756 -29.9375 37.6015625 C-29.3801416 38.5287207 -28.8227832 39.45587891 -28.24853516 40.41113281 C-27.63026855 41.40983398 -27.01200195 42.40853516 -26.375 43.4375 C-25.06763034 45.61036762 -23.76303961 47.78490919 -22.4609375 49.9609375 C-21.78256836 51.08983398 -21.10419922 52.21873047 -20.40527344 53.38183594 C-17.15293053 58.87749761 -14.07706357 64.46739252 -11 70.0625 C-5.52155901 79.98668406 0.04758061 89.85288186 5.69000244 99.68426514 C11.23960178 109.35491121 16.70930652 119.06603482 22.10961914 128.82080078 C24.77951162 133.62139182 27.47916183 138.30753757 30.625 142.8125 C34.15361799 142.23980047 36.86653331 141.34352272 39.98046875 139.59765625 C40.76744141 139.15873047 41.55441406 138.71980469 42.36523438 138.26757812 C43.17283203 137.80802734 43.98042969 137.34847656 44.8125 136.875 C45.63169922 136.41931641 46.45089844 135.96363281 47.29492188 135.49414062 C51.74555515 133.04195457 51.74555515 133.04195457 55.625 129.8125 C55.27802479 125.82462661 53.75132453 122.85578715 51.80859375 119.40234375 C51.21747803 118.34450684 50.6263623 117.28666992 50.01733398 116.19677734 C49.04969116 114.49062256 49.04969116 114.49062256 48.0625 112.75 C47.38630843 111.54666289 46.71061775 110.34304419 46.03540039 109.13916016 C40.59215757 99.45228066 35.07242614 89.80821096 29.54541016 80.16894531 C25.13234552 72.47015723 20.76575109 64.74678867 16.4375 57 C15.87232666 55.98881104 15.30715332 54.97762207 14.72485352 53.93579102 C13.59632704 51.91651907 12.46782754 49.89723204 11.33935547 47.87792969 C8.4003661 42.62273878 5.45376384 37.37190002 2.5 32.125 C1.96737549 31.17455811 1.43475098 30.22411621 0.88598633 29.24487305 C-0.51675504 26.75664752 -1.93586058 24.27982578 -3.375 21.8125 C-3.75366211 21.16200684 -4.13232422 20.51151367 -4.52246094 19.84130859 C-5.61479602 18.00498357 -5.61479602 18.00498357 -7.375 15.8125 C-12.51896703 15.8125 -16.60344193 19.01308751 -21 21.5 Z M-200.74121094 59.15380859 C-203.29011641 60.75904254 -205.84946597 62.345762 -208.4140625 63.92578125 C-211.86610618 66.05331975 -215.31379567 68.18761674 -218.7578125 70.328125 C-224.95204954 74.17495599 -231.16329112 77.99396817 -237.375 81.8125 C-245.21577323 86.63389478 -253.05124381 91.46353882 -260.875 96.3125 C-267.50323305 100.4200027 -274.1373805 104.51771254 -280.77856445 108.60424805 C-282.9612075 109.94732563 -285.14333987 111.29123348 -287.32495117 112.63598633 C-292.47715367 115.80983477 -297.63395946 118.97470541 -302.8110199 122.10780334 C-305.19811799 123.553242 -307.58204102 125.00387154 -309.96572876 126.45492554 C-311.64489416 127.47413926 -313.32861947 128.4858285 -315.01245117 129.49731445 C-323.42865212 134.33905842 -323.42865212 134.33905842 -329.37109375 141.76953125 C-330.5628115 146.77896427 -330.70913865 151.10397894 -328.375 155.8125 C-325.55721338 158.97468276 -322.32924452 161.58297464 -318.046875 162.0859375 C-297.88048692 162.78690821 -279.8436664 149.16320635 -263.20043945 139.23242188 C-253.64328648 133.53394232 -244.00968301 127.97900542 -234.33129883 122.48925781 C-229.13122526 119.53751725 -223.94349975 116.57447724 -218.8125 113.50390625 C-195.1296048 99.35891013 -174.79511005 99.14207722 -148.42211914 105.71136475 C-144.77987254 106.64488518 -141.14430641 107.60150511 -137.51220703 108.57373047 C-134.7202192 109.32046506 -131.92492265 110.0536658 -129.12890625 110.78515625 C-127.32271129 111.26224398 -125.51671404 111.740081 -123.7109375 112.21875 C-122.4795253 112.54232483 -122.4795253 112.54232483 -121.22323608 112.87243652 C-107.48825209 116.56565766 -107.48825209 116.56565766 -104.8125 119.5625 C-104.14862392 122.97671982 -104.46129956 125.46226504 -105.375 128.8125 C-107.25 130.875 -107.25 130.875 -110.375 131.8125 C-121.16205883 130.93338409 -131.97120745 126.99157253 -142.34130859 124.05053711 C-157.43672465 119.09910808 -157.43672465 119.09910808 -172.8125 119.875 C-177.07238467 123.09588841 -179.11442975 125.98850828 -179.875 131.3125 C-179.18198924 136.16357533 -177.23991734 139.18245574 -173.5625 142.39672852 C-171.06410202 144.01371623 -169.02899022 144.58187731 -166.125 145.21484375 C-164.52652222 145.58138062 -164.52652222 145.58138062 -162.89575195 145.95532227 C-161.73390381 146.21756592 -160.57205566 146.47980957 -159.375 146.75 C-147.60142388 149.54350528 -136.14981786 153.00214329 -124.6875 156.875 C-123.57870483 157.24889359 -123.57870483 157.24889359 -122.44750977 157.63034058 C-115.8431849 159.86369735 -109.25361517 162.13632525 -102.68896484 164.48388672 C-101.53741158 164.89470741 -101.53741158 164.89470741 -100.3625946 165.31382751 C-98.89981935 165.83699244 -97.43816198 166.36329785 -95.9778595 166.89332581 C-84.90969657 170.85659849 -74.98681914 170.69067021 -64.16308594 165.81640625 C-50.51599945 159.19084894 -37.47014612 151.34082849 -24.4296875 143.61181641 C-21.29759818 141.76690765 -18.15095484 139.94919354 -15 138.13671875 C-12.97914366 136.96618555 -10.95830948 135.7956141 -8.9375 134.625 C-7.9894751 134.08439941 -7.0414502 133.54379883 -6.06469727 132.98681641 C-5.19901123 132.4819873 -4.3333252 131.9771582 -3.44140625 131.45703125 C-2.67771729 131.01721924 -1.91402832 130.57740723 -1.12719727 130.12426758 C0.93155108 128.84272188 0.93155108 128.84272188 1.625 125.8125 C0.54880384 123.19562587 0.54880384 123.19562587 -1.13671875 120.3515625 C-1.75538818 119.25021973 -2.37405762 118.14887695 -3.01147461 117.01416016 C-3.69486319 115.82177583 -4.37854496 114.62955949 -5.0625 113.4375 C-5.75416657 112.21580155 -6.44499668 110.99362918 -7.13500977 109.77099609 C-8.87661875 106.69052567 -10.63002343 103.61694711 -12.38647461 100.54492188 C-13.85451061 97.97214256 -15.30975098 95.39217594 -16.765625 92.8125 C-22.11495423 83.35941467 -27.57959085 73.99992804 -33.375 64.8125 C-34.02726562 65.13863281 -34.67953125 65.46476562 -35.3515625 65.80078125 C-37.15886167 66.70443084 -38.96888861 67.60264031 -40.78125 68.49609375 C-42.72788086 69.48406755 -44.62809787 70.56435872 -46.5 71.6875 C-52.77378014 74.14245745 -60.39945529 71.1598502 -66.67749023 69.43579102 C-67.57128387 69.19501831 -68.46507751 68.95424561 -69.38595581 68.70617676 C-72.31987385 67.91456654 -75.25169456 67.11545794 -78.18359375 66.31640625 C-80.23553955 65.76159281 -82.2876304 65.2073156 -84.33985901 64.65354919 C-89.73149189 63.19743318 -95.12145183 61.73522349 -100.51098633 60.2713623 C-109.1322163 57.93069486 -117.75580681 55.59874904 -126.37968636 53.26786613 C-129.38076713 52.45570239 -132.38103935 51.64060575 -135.38121033 50.8250885 C-137.23515845 50.32285236 -139.08912576 49.82068701 -140.94311523 49.31860352 C-141.76780807 49.09359665 -142.59250092 48.86858978 -143.44218445 48.63676453 C-166.69660785 42.35332856 -180.62518822 46.47679317 -200.74121094 59.15380859 Z M-212.5390625 128.56640625 C-213.56531738 129.16590088 -214.59157227 129.76539551 -215.64892578 130.38305664 C-216.75478027 131.04039795 -217.86063477 131.69773926 -219 132.375 C-220.16466859 133.05877039 -221.32987997 133.74161702 -222.49560547 134.42358398 C-224.91974019 135.84265778 -227.34148105 137.26569718 -229.76171875 138.69140625 C-236.39019672 142.59009358 -243.068408 146.40329086 -249.73608398 150.234375 C-255.12077537 153.33530578 -260.48488889 156.46463748 -265.81640625 159.65625 C-276.39237858 165.96861473 -286.62114937 171.98172931 -298.375 175.8125 C-299.13296875 176.06128906 -299.8909375 176.31007812 -300.671875 176.56640625 C-306.10175445 178.11935177 -311.76592182 178.42068939 -317.375 178.8125 C-314.11263652 189.86828734 -308.77337623 199.01315465 -301.375 207.8125 C-300.76914062 208.56402344 -300.16328125 209.31554687 -299.5390625 210.08984375 C-293.43480921 217.37757472 -286.20073671 222.44587009 -278.171875 227.44140625 C-266.63983651 234.63662054 -257.24152383 241.07214132 -253.375 254.8125 C-252.54478318 258.83933394 -252.23786295 262.77093711 -252.0859375 266.87719727 C-251.93321265 279.28087555 -251.93321265 279.28087555 -246.45703125 289.9453125 C-243.51011733 292.61325867 -240.40475572 295.02169312 -237.25390625 297.44140625 C-230.80780977 302.65608469 -225.62566114 309.69600951 -223.63208008 317.85180664 C-222.65464037 320.98362103 -222.65464037 320.98362103 -219.90063477 322.22802734 C-218.88283936 322.5317627 -217.86504395 322.83549805 -216.81640625 323.1484375 C-215.70845703 323.49003906 -214.60050781 323.83164062 -213.45898438 324.18359375 C-212.29689453 324.51488281 -211.13480469 324.84617187 -209.9375 325.1875 C-208.77927734 325.54199219 -207.62105469 325.89648438 -206.42773438 326.26171875 C-200.50065007 328.1504884 -200.50065007 328.1504884 -194.375 328.8125 C-192.82568444 326.79098811 -192.82568444 326.79098811 -191.375 324.125 C-188.57160759 319.49021593 -185.5168873 315.52627285 -181.9375 311.5 C-173.87669065 302.29041127 -166.6906244 291.80779535 -166.25 279.25 C-168.75783987 271.58715595 -176.00018737 268.22299223 -182.8125 264.75 C-190.46597288 260.98758607 -198.39055553 257.98336487 -206.51806641 255.41162109 C-208.18487251 254.87384274 -209.82725308 254.26170869 -211.46484375 253.640625 C-218.78195281 252.09094756 -226.35000603 252.82152313 -233.79296875 253.06640625 C-245.93297071 253.27851317 -245.93297071 253.27851317 -251.375 248.8125 C-258.80266554 240.34785518 -267.64679203 227.19086694 -268 215.75 C-267.68036514 211.71313015 -267.27643522 208.80460507 -264.375 205.8125 C-258.63687117 202.18595308 -252.74208768 200.81652831 -246.125 199.6875 C-244.36884063 199.37774011 -242.61358178 199.06282046 -240.859375 198.7421875 C-240.09334961 198.61054199 -239.32732422 198.47889648 -238.53808594 198.34326172 C-236.22692786 197.77616717 -234.40753713 197.04969651 -232.375 195.8125 C-231.2380252 193.4565241 -231.2380252 193.4565241 -230.5 190.6875 C-225.79908737 176.97799435 -215.67090247 171.82758053 -203.125 165.5625 C-195.50659227 162.14122733 -187.52125034 160.47101803 -179.375 158.8125 C-180.53322266 157.89597656 -180.53322266 157.89597656 -181.71484375 156.9609375 C-188.50502531 151.47694358 -192.92387115 146.45962569 -194.6875 137.8125 C-195.86774965 132.59864992 -197.36179157 129.97043408 -201.55859375 126.703125 C-205.87965692 124.58441015 -208.78662977 126.35131233 -212.5390625 128.56640625 Z M-159.375 163.8125 C-160.035 164.905625 -160.695 165.99875 -161.375 167.125 C-164.29833016 171.96676557 -169.45797984 173.07475794 -174.640625 174.38549805 C-176.21819395 174.74630739 -177.79745895 175.09976578 -179.37817383 175.4465332 C-191.72011771 178.18234886 -206.09084938 182.08164027 -214.13671875 192.6015625 C-216.04539812 196.00948844 -217.14827406 199.63471247 -218.3828125 203.328125 C-219.87254331 207.05831711 -221.84758438 209.08646362 -225.375 210.8125 C-232.77561621 213.6877052 -240.2504448 215.31222983 -248.109375 216.3203125 C-248.85703125 216.48273438 -249.6046875 216.64515625 -250.375 216.8125 C-250.705 217.4725 -251.035 218.1325 -251.375 218.8125 C-250.63687516 220.55261447 -250.63687516 220.55261447 -249.42578125 222.40234375 C-248.98943359 223.10423828 -248.55308594 223.80613281 -248.10351562 224.52929688 C-247.63623047 225.26212891 -247.16894531 225.99496094 -246.6875 226.75 C-246.23955078 227.47896484 -245.79160156 228.20792969 -245.33007812 228.95898438 C-242.15550862 234.18388884 -242.15550862 234.18388884 -237.375 237.8125 C-235.24540626 237.95842647 -235.24540626 237.95842647 -233 237.5 C-208.59778024 234.45414964 -182.17909267 243.3444106 -162.375 257.8125 C-161.77558594 258.23015625 -161.17617188 258.6478125 -160.55859375 259.078125 C-155.60957246 262.79919364 -152.3151276 267.99211721 -150.375 273.8125 C-148.58650365 290.11420444 -155.43823251 304.46372004 -165.3125 316.9375 C-166.66302386 318.56552876 -168.01730229 320.19044905 -169.375 321.8125 C-170.87907253 323.68423471 -172.37918612 325.55915876 -173.875 327.4375 C-175.04166667 328.89583333 -176.20833333 330.35416667 -177.375 331.8125 C-174.54607736 334.04174319 -171.67379747 335.74678546 -168.5 337.4375 C-161.28244375 341.71693601 -157.56556708 347.8004259 -155.375 355.8125 C-155.14453125 359.06640625 -155.14453125 359.06640625 -155.1875 362.375 C-155.19394531 363.46941406 -155.20039063 364.56382812 -155.20703125 365.69140625 C-155.35850676 368.50603265 -155.73715836 371.0723323 -156.375 373.8125 C-152.07904177 372.50770126 -148.39309322 370.85178404 -144.5078125 368.609375 C-143.38576416 367.96508545 -142.26371582 367.3207959 -141.10766602 366.65698242 C-139.90501595 365.95898481 -138.70246272 365.26082031 -137.5 364.5625 C-136.25796659 363.84635253 -135.01569464 363.13061862 -133.77319336 362.4152832 C-129.96909617 360.2224261 -126.17154856 358.01839289 -122.375 355.8125 C-121.18344438 355.12090791 -119.99187569 354.42933835 -118.80029297 353.73779297 C-111.98287702 349.7781974 -105.1661376 345.81705475 -98.375 341.8125 C-97.45581787 341.33337158 -96.53663574 340.85424316 -95.58959961 340.3605957 C-94.85878174 339.84972412 -94.12796387 339.33885254 -93.375 338.8125 C-93.12924608 335.48291574 -93.12924608 335.48291574 -93.33056641 333.08959961 C-93.37822333 330.64731308 -92.97571741 328.68575295 -92.3984375 326.31640625 C-91.13207151 320.29244666 -91.11324783 314.44809833 -91.1875 308.3125 C-91.19612061 307.17772217 -91.20474121 306.04294434 -91.21362305 304.8737793 C-91.24893232 301.51939874 -91.30567002 298.16633794 -91.375 294.8125 C-91.39433594 293.87486816 -91.41367187 292.93723633 -91.43359375 291.97119141 C-91.49598431 289.52098578 -91.58363685 287.07376334 -91.6875 284.625 C-91.70981689 283.92632812 -91.73213379 283.22765625 -91.75512695 282.5078125 C-92.0214076 277.61257642 -93.12615735 274.10186022 -95.375 269.8125 C-98.60358268 267.66011155 -99.77354937 267.51583406 -103.53125 267.3203125 C-104.55476562 267.25457031 -105.57828125 267.18882812 -106.6328125 267.12109375 C-108.76268826 267.00048633 -110.8929044 266.88572074 -113.0234375 266.77734375 C-126.49741907 265.88691853 -135.38537193 261.87483999 -144.375 251.8125 C-148.48514808 245.71491322 -150.22594455 239.12569008 -149.375 231.8125 C-147.71827508 225.13283836 -144.66788322 219.50655472 -141.125 213.6875 C-138.21069433 208.88937573 -136.70708189 205.36668109 -137.2734375 199.703125 C-137.44686901 196.47463083 -136.10974627 194.44452882 -134.375 191.8125 C-129.95868745 186.94323232 -126.09968954 183.04054222 -119.3125 182.625 C-116.15597575 182.77531068 -113.55389417 183.14282803 -110.5 183.8125 C-105.68499134 184.86116753 -101.29365369 184.97116625 -96.375 184.8125 C-98.98966884 183.06938744 -100.90412154 182.16608355 -103.82373047 181.16430664 C-105.1719136 180.6985598 -105.1719136 180.6985598 -106.54733276 180.22340393 C-107.51913483 179.8931572 -108.49093689 179.56291046 -109.4921875 179.22265625 C-110.50032501 178.87746445 -111.50846252 178.53227264 -112.54714966 178.17662048 C-114.68659564 177.44567251 -116.82682705 176.71702007 -118.96777344 175.99047852 C-122.20523224 174.89021451 -125.43863805 173.77861497 -128.671875 172.66601562 C-138.80942885 169.20140494 -148.82175344 165.78397143 -159.375 163.8125 Z M-56.375 180.8125 C-57.40386281 183.50961135 -57.40386281 183.50961135 -57.8125 186.5625 C-59.01932594 192.16271475 -60.63520161 196.36349638 -65.375 199.8125 C-70.94749357 202.41125287 -76.60410778 202.11558927 -82.625 202.0625 C-83.68315918 202.05863281 -84.74131836 202.05476563 -85.83154297 202.05078125 C-93.87001945 201.96352506 -101.73447687 201.32599558 -109.6953125 200.25 C-112.97896284 199.85958722 -116.0741126 199.65197052 -119.375 199.8125 C-121.07747036 201.51497036 -120.82841813 203.92183232 -121.125 206.25 C-122.40484855 214.24194316 -125.70419459 220.32394313 -130.125 227 C-132.40860482 230.60302093 -133.45573584 233.45276451 -133.375 237.8125 C-131.09725169 242.36799662 -127.91856063 246.38436234 -123.375 248.8125 C-116.77463271 250.7160542 -109.94310241 250.91396892 -103.125 251.25 C-95.90821935 251.62221703 -90.5663379 252.36333371 -84.6875 256.875 C-78.12624779 265.20956362 -76.30155257 273.22635663 -75.8125 283.625 C-75.7700415 284.50631592 -75.72758301 285.38763184 -75.68383789 286.2956543 C-75.10367236 300.12273819 -75.29069053 313.97666728 -75.375 327.8125 C-74.18261719 327.24660156 -72.99023438 326.68070313 -71.76171875 326.09765625 C-70.19535469 325.35668164 -68.62894612 324.61580112 -67.0625 323.875 C-66.27681641 323.50181641 -65.49113281 323.12863281 -64.68164062 322.74414062 C-63.92431641 322.38642578 -63.16699219 322.02871094 -62.38671875 321.66015625 C-61.34197388 321.1652771 -61.34197388 321.1652771 -60.27612305 320.66040039 C-58.375 319.8125 -58.375 319.8125 -55.375 318.8125 C-53.24373385 315.60046924 -51.70696247 312.0441702 -50.0625 308.5625 C-49.57265625 307.52706055 -49.0828125 306.49162109 -48.578125 305.42480469 C-44.01111423 295.48216784 -40.75225284 285.480789 -38.375 274.8125 C-38.11251465 273.63856689 -38.11251465 273.63856689 -37.84472656 272.44091797 C-31.19604156 241.16576705 -35.52149545 206.20270904 -50.375 177.8125 C-52.787188 177.8125 -54.53019378 179.45527008 -56.375 180.8125 Z M-327.375 200.8125 C-337.52721963 239.74576947 -334.86794762 280.71838791 -314.375 316.0625 C-313.38960717 317.6549652 -312.3960394 319.24265192 -311.375 320.8125 C-306.73517532 320.21810563 -303.10953543 318.19298949 -299.0625 316 C-284.41858803 308.40246374 -269.97980273 305.49528866 -253.90625 310.25390625 C-251.27019188 311.06269383 -251.27019188 311.06269383 -248.375 309.8125 C-249.12265625 309.23242188 -249.8703125 308.65234375 -250.640625 308.0546875 C-251.62546875 307.27351563 -252.6103125 306.49234375 -253.625 305.6875 C-255.08679688 304.53894531 -255.08679688 304.53894531 -256.578125 303.3671875 C-265.19819138 295.49355145 -267.26628579 283.68044889 -267.85107422 272.43310547 C-267.89385498 271.41434326 -267.89385498 271.41434326 -267.9375 270.375 C-268.35853487 260.89147412 -269.610421 254.47615082 -276.74609375 247.83984375 C-280.51034832 244.93694906 -284.54658077 242.60898365 -288.65966797 240.23828125 C-303.87977556 231.38735485 -315.08833474 219.02939773 -324.25 204.1875 C-324.95125 203.07375 -325.6525 201.96 -326.375 200.8125 C-326.705 200.8125 -327.035 200.8125 -327.375 200.8125 Z M-326.3203125 350.01318359 C-329.45240182 351.85809235 -332.59904516 353.67580646 -335.75 355.48828125 C-337.77085634 356.65881445 -339.79169052 357.8293859 -341.8125 359 C-342.7605249 359.54060059 -343.7085498 360.08120117 -344.68530273 360.63818359 C-345.98383179 361.39542725 -345.98383179 361.39542725 -347.30859375 362.16796875 C-348.07228271 362.60778076 -348.83597168 363.04759277 -349.62280273 363.50073242 C-351.68155108 364.78227812 -351.68155108 364.78227812 -352.375 367.8125 C-351.29880384 370.42937413 -351.29880384 370.42937413 -349.61328125 373.2734375 C-348.6852771 374.92545166 -348.6852771 374.92545166 -347.73852539 376.61083984 C-347.05513681 377.80322417 -346.37145504 378.99544051 -345.6875 380.1875 C-344.99583343 381.40919845 -344.30500332 382.63137082 -343.61499023 383.85400391 C-341.87338125 386.93447433 -340.11997657 390.00805289 -338.36352539 393.08007812 C-336.89548939 395.65285744 -335.44024902 398.23282406 -333.984375 400.8125 C-328.63504577 410.26558533 -323.17040915 419.62507196 -317.375 428.8125 C-316.72273438 428.48636719 -316.07046875 428.16023438 -315.3984375 427.82421875 C-313.59113833 426.92056916 -311.78111139 426.02235969 -309.96875 425.12890625 C-308.02211914 424.14093245 -306.12190213 423.06064128 -304.25 421.9375 C-298.30390986 419.61076908 -291.23251709 422.22326273 -285.25683594 423.86621094 C-284.48800079 424.07290405 -283.71916565 424.27959717 -282.92703247 424.49255371 C-280.40310675 425.17235177 -277.88128437 425.85963829 -275.359375 426.546875 C-273.58040219 427.02723539 -271.80128567 427.50706383 -270.02203369 427.98638916 C-265.33988883 429.24900826 -260.65942006 430.51772667 -255.97937012 431.78808594 C-248.53457213 433.80792079 -241.087341 435.81875781 -233.63996124 437.82904816 C-231.07206918 438.52317054 -228.50494099 439.22005696 -225.93792725 439.91741943 C-217.4815002 442.20972138 -209.01244992 444.4491446 -200.52050781 446.60644531 C-199.27776407 446.92666468 -199.27776407 446.92666468 -198.0099144 447.25335312 C-183.97959974 450.77997903 -172.74075836 448.14083198 -160.3996582 440.90039062 C-156.91281541 438.79365107 -153.45531968 436.64317751 -150.00878906 434.47119141 C-147.45988359 432.86595746 -144.90053403 431.279238 -142.3359375 429.69921875 C-138.87744483 427.56767841 -135.42322579 425.42949959 -131.97265625 423.28515625 C-125.88801114 419.50649953 -119.78852622 415.7521334 -113.6875 412 C-112.59977295 411.330896 -111.5120459 410.66179199 -110.39135742 409.97241211 C-105.93529221 407.23155365 -101.47886585 404.49128264 -97.02246094 401.75097656 C-79.18476824 390.78490876 -79.18476824 390.78490876 -61.3815918 379.76293945 C-57.02101109 377.05598156 -52.65030159 374.36757008 -48.25964355 371.70959473 C-45.87972492 370.26827668 -43.50294677 368.82181899 -41.1262207 367.37524414 C-39.41730349 366.33817226 -37.70382082 365.3086353 -35.99023438 364.27929688 C-34.94158203 363.64056641 -33.89292969 363.00183594 -32.8125 362.34375 C-31.88308594 361.78236328 -30.95367187 361.22097656 -29.99609375 360.64257812 C-24.96726934 357.13139446 -21.70487886 353.94864853 -20.53515625 347.9296875 C-20.25645384 344.24537764 -20.72823658 341.13441932 -22.375 337.8125 C-25.21527622 334.62507891 -28.44557038 332.00418601 -32.7734375 331.57421875 C-53.13029734 331.06663301 -70.82500034 344.39167145 -87.65063477 354.44311523 C-97.17253043 360.12814164 -106.77315084 365.66456326 -116.41918945 371.13598633 C-121.61908313 374.08767447 -126.80665653 377.05061628 -131.9375 380.12109375 C-154.72759796 393.73285213 -174.41350052 394.77253222 -199.97021484 388.47314453 C-204.88761825 387.21843889 -209.78837925 385.90486135 -214.68432617 384.5690918 C-217.72659677 383.73933667 -220.77210849 382.92243079 -223.81835938 382.10742188 C-225.77102943 381.58145664 -227.72351083 381.0547904 -229.67578125 380.52734375 C-230.57782791 380.28459213 -231.47987457 380.04184052 -232.40925598 379.79173279 C-243.63418843 376.72167784 -243.63418843 376.72167784 -245.75 374.125 C-246.68401131 370.66915814 -246.31197066 368.24805907 -245.375 364.8125 C-243.5 362.75 -243.5 362.75 -240.375 361.8125 C-229.58794117 362.69161591 -218.77879255 366.63342747 -208.40869141 369.57446289 C-193.31327535 374.52589192 -193.31327535 374.52589192 -177.9375 373.75 C-173.67761533 370.52911159 -171.63557025 367.63649172 -170.875 362.3125 C-171.56801076 357.46142467 -173.51008266 354.44254426 -177.1875 351.22827148 C-179.68589798 349.61128377 -181.72100978 349.04312269 -184.625 348.41015625 C-185.69065186 348.16579834 -186.75630371 347.92144043 -187.85424805 347.66967773 C-189.01609619 347.40743408 -190.17794434 347.14519043 -191.375 346.875 C-203.14857612 344.08149472 -214.60018214 340.62285671 -226.0625 336.75 C-226.80169678 336.50073761 -227.54089355 336.25147522 -228.30249023 335.99465942 C-234.9068151 333.76130265 -241.49638483 331.48867475 -248.06103516 329.14111328 C-248.82873734 328.86723282 -249.59643951 328.59335236 -250.3874054 328.31117249 C-251.85018065 327.78800756 -253.31183802 327.26170215 -254.7721405 326.73167419 C-280.6624597 317.46090401 -304.95300831 337.3488934 -326.3203125 350.01318359 Z M-390.359375 353.4375 C-391.29394531 353.97890625 -392.22851562 354.5203125 -393.19140625 355.078125 C-394.15949219 355.65046875 -395.12757813 356.2228125 -396.125 356.8125 C-397.10855469 357.38484375 -398.09210938 357.9571875 -399.10546875 358.546875 C-401.53324855 359.96111566 -403.95607122 361.38319059 -406.375 362.8125 C-405.83410456 367.24645673 -404.75344619 370.44073867 -402.55859375 374.3203125 C-401.96747803 375.37492676 -401.3763623 376.42954102 -400.76733398 377.51611328 C-400.12223877 378.6451709 -399.47714355 379.77422852 -398.8125 380.9375 C-398.13607907 382.13614937 -397.46039307 383.33521373 -396.78540039 384.53466797 C-394.66141115 388.30128488 -392.5193462 392.05744627 -390.375 395.8125 C-389.6913261 397.01167306 -389.00773098 398.21089103 -388.32421875 399.41015625 C-385.65079888 404.09875918 -382.97385406 408.78532343 -380.28881836 413.46728516 C-375.93761533 421.05672292 -371.63866256 428.67356469 -367.375 436.3125 C-366.24240676 438.33345623 -365.10959176 440.35428819 -363.9765625 442.375 C-362.06772142 445.78036393 -360.1649825 449.18885658 -358.27636719 452.60546875 C-356.46709541 455.87823091 -354.64513459 459.14365043 -352.81542969 462.4050293 C-352.1098777 463.66820017 -351.40895793 464.9339705 -350.71289062 466.20239258 C-349.74513442 467.96452313 -348.7596684 469.71689249 -347.7734375 471.46875 C-347.21317871 472.47744141 -346.65291992 473.48613281 -346.07568359 474.52539062 C-344.58458051 476.88533047 -344.58458051 476.88533047 -342.45605469 477.78637695 C-339.64944139 477.82160779 -338.11950352 476.94957887 -335.6796875 475.57421875 C-334.79925781 475.08373047 -333.91882813 474.59324219 -333.01171875 474.08789062 C-332.10035156 473.56388672 -331.18898438 473.03988281 -330.25 472.5 C-328.87134766 471.73139648 -328.87134766 471.73139648 -327.46484375 470.94726562 C-322.61284066 468.29596918 -322.61284066 468.29596918 -318.375 464.8125 C-318.70816422 460.57675237 -320.50498861 457.38533005 -322.55078125 453.71875 C-322.87182831 453.13928619 -323.19287537 452.55982239 -323.52365112 451.96279907 C-324.57163062 450.07558153 -325.62932801 448.19401848 -326.6875 446.3125 C-327.42079232 444.99749146 -328.15361695 443.682222 -328.88598633 442.36669922 C-334.01474624 433.17025826 -339.21652755 424.01541547 -344.46484375 414.88671875 C-347.5467543 409.52384027 -350.58692786 404.13779851 -353.625 398.75 C-358.3383105 390.40097484 -363.06683836 382.06072577 -367.81628418 373.73220825 C-368.51258214 372.51075647 -369.20831773 371.2889839 -369.90344238 370.06686401 C-371.48830985 367.28110722 -373.0810692 364.50044124 -374.6875 361.72705078 C-375.74475289 359.90102575 -376.78864397 358.06712594 -377.8125 356.22216797 C-379.17003171 353.7783169 -379.17003171 353.7783169 -381.375 350.8125 C-385.62637186 350.8125 -386.80805421 351.35867807 -390.359375 353.4375 Z " fill="#000000" transform="translate(431.375,9.1875)"/>
<path d="M0 0 C1.90625 0.44921875 1.90625 0.44921875 4.40625 2.57421875 C6.18426176 5.98207462 6.61585213 7.66467407 5.90625 11.44921875 C3.45030875 14.77196279 1.9805856 16.22539883 -2.09375 17.07421875 C-6.20078441 16.21858658 -7.64776113 14.83043866 -10.09375 11.44921875 C-10.71866523 7.49142226 -10.70381839 5.44057989 -8.59375 2.01171875 C-5.56188683 0.11680427 -3.53294544 -0.19114817 0 0 Z " fill="#000000" transform="translate(47.09375,372.55078125)"/>
<path d="M0 0 C4.10703441 0.85563217 5.55401113 2.24378009 8 5.625 C8.62491523 9.58279649 8.61006839 11.63363886 6.5 15.0625 C3.46813683 16.95741448 1.43919544 17.26536692 -2.09375 17.07421875 C-4 16.625 -4 16.625 -6.5 14.5 C-8.27801176 11.09214413 -8.70960213 9.40954468 -8 5.625 C-5.54405875 2.30225596 -4.0743356 0.84881992 0 0 Z " fill="#000000" transform="translate(467,122.375)"/>
</svg>
